mtllib Snorlax.mtl
v 0 0.594438 -0.212823
vt 0.48536 9.50007
vn 0 -0.2899972 -0.9570276
v 0 0.484805 -0.138462
vt 0.488408 9.60412
vn 0 -0.8308763 -0.5564572
v -0.15312 0.521146 -0.124368
vt 0.14079 9.60958
vn -0.44807 -0.657801 -0.6054181
v 0.15312 0.521146 -0.124368
vt 0.835749 9.58922
vn 0.44807 -0.657801 -0.6054181
v -0.183303 0.631608 -0.151596
vt 0.128804 9.62655
vn -0.5916107 -0.1715839 -0.7877536
v 0.183303 0.631608 -0.151596
vt 0.848708 9.60547
vn 0.5916107 -0.1715839 -0.7877536
v -0.115238 0.671051 -0.184833
vt 0.116818 9.64353
vn -0.337427 0.0797214 -0.9379699
v 0.115238 0.671051 -0.184833
vt 0.861668 9.62171
vn 0.337427 0.0797214 -0.9379699
v 0 0.748327 -0.204269
vt 0.488392 9.60358
vn 0 0.4093012 -0.9123994
v -0.148237 0.48248 0.0051359
vt 0.19885 9.90138
vn -0.2815681 -0.9594736 -0.01140061
v 0.148237 0.48248 0.0051359
vt 0.794869 9.88392
vn 0.2815681 -0.9594736 -0.01140061
v 0 0.451267 0.00568481
vt 0.496376 9.87612
vn 0 -0.9990829 0.04281919
v -0.173846 0.751033 -0.136627
vt 0.146874 9.70715
vn -0.5420929 0.6032819 -0.584967
v -0.226327 0.640065 -0.0861246
vt 0.0779551 9.82781
vn -0.9046771 -0.08298881 -0.4179381
v 0.173846 0.751033 -0.136627
vt 0.835387 9.68698
vn 0.5408331 0.606891 -0.5823941
v 0.226327 0.640065 -0.0861246
vt 0.911251 9.8034
vn 0.9046767 -0.08298848 -0.4179389
v -0.202371 0.521558 0.00322685
vt 0.119392 9.9263
vn -0.7647916 -0.6288097 -0.1403289
v 0.202371 0.521558 0.00322685
vt 0.87565 9.90415
vn 0.7647912 -0.6288102 -0.140329
v -0.242426 0.713948 0.00118923
vt 0.0271059 10.0291
vn -0.9532527 0.2859719 -0.09761818
v -0.227944 0.567753 0.00363631
vt 0.0399336 9.95122
vn -0.8998553 -0.4102491 -0.148176
v -0.248605 0.66413 0.00194145
vt -0.000108574 10.0035
vn -0.999256 0.0375852 -0.00864557
v -0.243936 0.615942 0.00278889
vt 0.0199125 9.97734
vn -0.9769478 -0.211276 -0.03058559
v 0.242426 0.713948 0.00118923
vt 0.973794 10.0013
vn 0.9532527 0.2859719 -0.09761848
v 0.227944 0.567753 0.00363631
vt 0.956431 9.92438
vn 0.8998553 -0.4102491 -0.148176
v 0.248605 0.66413 0.00194145
vt 0.999463 9.97419
vn 0.999256 0.0375849 -0.0086456
v 0.243936 0.615942 0.00278889
vt 0.977947 9.94928
vn 0.9769478 -0.211276 -0.03058589
v 0 0.823808 -0.135134
vt 0.494215 9.80236
vn 0.00182359 0.8734391 -0.48693
v -0.2223 0.76376 0.000189401
vt 0.0543203 10.0547
vn -0.7935983 0.6007482 -0.09645364
v 0.2223 0.76376 0.000189401
vt 0.948124 10.0285
vn 0.793201 0.600839 -0.09911989
v -0.148237 0.824105 -0.00381343
vt 0.203975 10.0763
vn -0.3670538 0.9279016 -0.06534657
v 0.148237 0.824924 -0.0008862
vt 0.80018 10.0652
vn 0.366269 0.928487 -0.06131
v 0 0.847134 -0.0012768
vt 0.502515 10.0857
vn -0.002465319 0.9997284 -0.02317399
v 0 0.830029 0.122418
vt 0.509546 10.3257
vn -0.00300997 0.9366959 0.350131
v 0.203078 0.765137 0.0784764
vt 0.917752 10.1883
vn 0.7252963 0.6158322 0.3077271
v -0.203078 0.765137 0.0784764
vt 0.0939955 10.2124
vn -0.7213538 0.6211337 0.3063359
v 0.155918 0.766514 0.156763
vt 0.88738 10.3481
vn 0.4443901 0.7522861 0.4863981
v -0.155918 0.766514 0.156763
vt 0.133671 10.3702
vn -0.4441521 0.7558193 0.4811092
v 0 0.767732 0.226015
vt 0.51464 10.4996
vn 0 0.6619702 0.7495302
v -0.197641 0.649214 0.165948
vt 0.0700294 0.620341
vn -0.8014957 0.04566188 0.5962547
v -0.229876 0.710939 0.083168
vt -9.97186E-05 0.810854
vn -0.8938659 0.303115 0.330341
v -0.239605 0.656672 0.0839448
vt -0.0212651 0.624473
vn -0.9504213 0.04355951 0.3078991
v -0.185701 0.70793 0.165147
vt 0.0960052 0.822016
vn -0.7339522 0.2937621 0.6123872
v -0.234865 0.608816 0.0831208
vt -0.0109525 0.459714
vn -0.9481353 -0.1923371 0.2530731
v -0.0937282 0.713367 0.217982
vt 0.296093 0.85457
vn -0.3664931 0.2560351 0.8944992
v -0.193482 0.60169 0.163453
vt 0.0790777 0.456287
vn -0.7334229 -0.262754 0.6269379
v -0.145324 0.646096 0.194674
vt 0.183845 0.617158
vn -0.4152839 -0.151155 0.8970459
vt -0.0408444 0.628604
vt 0.0581999 0.995972
vt -0.0274012 0.799692
vt 0.0163838 0.9707
v -0.218783 0.56096 0.0822969
vt 0.0240335 0.294955
vn -0.8422048 -0.4632709 0.2758099
vt -0.0306862 0.46314
vt 0.00410479 0.297677
vt 0.160798 1.02124
vt 0.5 1.0436
v 0 0.642603 0.258609
vt 0.5 0.621919
vn 0.00154694 -0.148402 0.9889259
v -0.159518 0.554166 0.160958
vt 0.152967 0.292232
vn -0.446172 -0.522746 0.726407
v -0.19449 0.516959 0.0574536
vt 0.0768831 0.13715
vn -0.711154 -0.6650401 0.227995
vt 0.0597394 0.138735
v 0.0937282 0.713367 0.217982
vt 0.703907 0.85457
vn 0.366881 0.253691 0.895008
v -0.159852 0.51236 0.11168
vt 0.152239 0.135564
vn -0.3720301 -0.8408623 0.3931212
v 0 0.519895 0.197828
vt 0.5 0.18407
vn 0 -0.728292 0.685267
v 0 0.548076 0.217222
vt 0.5 0.286051
vn 0 -0.4386982 0.8986344
vt 0.177508 0.00487489
vt 0.839202 1.02124
v 0.185701 0.70793 0.165147
vt 0.903995 0.822016
vn 0.7339522 0.2937621 0.6123872
v 0.197641 0.649214 0.165948
vt 0.929971 0.620341
vn 0.8037893 0.04660022 0.5930862
v 0.148231 0.646193 0.193311
vt 0.822478 0.617135
vn 0.4157412 -0.1514971 0.8967764
v 0.159518 0.554166 0.160958
vt 0.847034 0.292232
vn 0.4461909 -0.5202979 0.7281509
v 0 0.497804 0.161627
vt 0.5 0.103638
vn 0 -0.9364324 0.3508481
v 0.159852 0.51236 0.11168
vt 0.847761 0.135564
vn 0.3720301 -0.8408623 0.3931212
vt 0.9418 0.995972
v 0.193482 0.60169 0.163453
vt 0.920922 0.456287
vn 0.7361785 -0.2632288 0.6234996
vt 0.822492 0.00487489
v 0.218783 0.56096 0.0822969
vt 0.975967 0.294955
vn 0.8422046 -0.4632708 0.2758109
v 0.19449 0.516959 0.0574536
vt 0.923117 0.13715
vn 0.711154 -0.6650401 0.227995
vt 0.5 0.0382665
v 0.229876 0.710939 0.0831681
vt 1.0001 0.810854
vn 0.8938661 0.303114 0.330341
vt 0.995895 0.297677
vt 0.940261 0.138735
v 0.234865 0.608816 0.0831209
vt 1.01095 0.459714
vn 0.9481353 -0.1923371 0.2530731
vt 0.983616 0.9707
v 0.239605 0.656672 0.0839448
vt 1.02127 0.624473
vn 0.9504213 0.04355961 0.3078991
vt 1.03069 0.46314
vt 1.0274 0.799692
vt 1.04084 0.628604
v -0.13378 0.9112071 0.022551
vt 0.116332 4.57092
vn -0.1736479 0.9846556 -0.0173154
v -0.112951 0.791715 -0.0542088
vt 0.173985 3.68593
vn -0.09538592 0.5261871 -0.8450022
v -0.200009 0.777753 0.0248979
vt -0.0669934 3.57092
vn -0.895786 0.444417 -0.00781503
v -0.0258928 0.808449 0.0243581
vt 0.414964 3.80094
vn 0.6897411 0.7239441 -0.0127304
v -0.112951 0.794488 0.103465
vn -0.09538583 0.5555732 0.8259782
v 0.13378 0.9112071 0.022551
vt 0.655123 4.54377
vn 0.1736491 0.9846554 -0.0173158
v 0.112951 0.791715 -0.0542089
vt 0.597469 3.65878
vn 0.09538751 0.5261871 -0.8450021
v 0.0258928 0.80845 0.0243581
vt 0.35649 3.77379
vn -0.6897406 0.7239446 -0.01273139
v 0.200009 0.777753 0.0248979
vt 0.838447 3.54377
vn 0.8957863 0.4444162 -0.007815533
v 0.112951 0.794488 0.103465
vn 0.09538732 0.555573 0.8259781
vt 0.499907 0.497594
vt 0.509393 0.498011
vt 0.505905 0.502406
vt 0.493909 0.502406
vt 0.490607 0.498003
o merged_0_0_node
g polygon_0
usemtl mat_face_mat_id
f 1/1/1 2/2/2 3/3/3
f 1/1/1 4/4/4 2/2/2
f 1/1/1 3/3/3 5/5/5
f 1/1/1 6/6/6 4/4/4
f 1/1/1 5/5/5 7/7/7
f 1/1/1 8/8/8 6/6/6
f 1/1/1 7/7/7 9/9/9
f 1/1/1 9/9/9 8/8/8
f 2/2/2 10/10/10 3/3/3
f 2/2/2 4/4/4 11/11/11
f 2/2/2 12/12/12 10/10/10
f 2/2/2 11/11/11 12/12/12
f 5/5/5 13/13/13 7/7/7
f 5/5/5 3/3/3 14/14/14
f 5/5/5 14/14/14 13/13/13
f 7/7/7 13/13/13 9/9/9
f 6/6/6 8/8/8 15/15/15
f 6/6/6 16/16/16 4/4/4
f 6/6/6 15/15/15 16/16/16
f 8/8/8 9/9/9 15/15/15
f 10/10/10 17/17/17 3/3/3
f 11/11/11 4/4/4 18/18/18
f 14/14/14 19/19/19 13/13/13
f 14/14/14 3/3/3 20/20/20
f 14/14/14 21/21/21 19/19/19
f 14/14/14 20/20/20 22/22/22
f 14/14/14 22/22/22 21/21/21
f 20/20/20 3/3/3 17/17/17
f 16/16/16 15/15/15 23/23/23
f 16/16/16 24/24/24 4/4/4
f 16/16/16 23/23/23 25/25/25
f 16/16/16 26/26/26 24/24/24
f 16/16/16 25/25/25 26/26/26
f 24/24/24 18/18/18 4/4/4
f 9/9/9 13/13/13 27/27/27
f 9/9/9 27/27/27 15/15/15
f 19/19/19 28/28/28 13/13/13
f 23/23/23 15/15/15 29/29/29
f 27/27/27 13/13/13 30/30/30
f 27/27/27 31/31/31 15/15/15
f 27/27/27 30/30/30 32/32/32
f 27/27/27 32/32/32 31/31/31
f 15/15/15 31/31/31 29/29/29
f 13/13/13 28/28/28 30/30/30
f 32/32/32 33/33/33 31/31/31
f 32/32/32 30/30/30 33/33/33
f 29/29/29 31/31/31 34/34/34
f 28/28/28 35/35/35 30/30/30
f 33/33/33 36/36/36 31/31/31
f 33/33/33 30/30/30 37/37/37
f 33/33/33 38/38/38 36/36/36
f 33/33/33 37/37/37 38/38/38
f 37/37/37 30/30/30 35/35/35
f 36/36/36 34/34/34 31/31/31
f 39/39/39 40/40/40 41/41/41
f 39/39/39 42/42/42 40/40/40
f 39/39/39 41/41/41 43/43/43
f 39/39/39 44/44/44 42/42/42
f 39/39/39 43/43/43 45/45/45
f 39/39/39 46/46/46 44/44/44
f 39/39/39 45/45/45 46/46/46
f 40/40/40 21/47/21 41/41/41
f 40/40/40 42/42/42 35/48/35
f 40/40/40 19/49/19 21/47/21
f 40/40/40 35/48/35 28/50/28
f 40/40/40 28/50/28 19/49/19
f 43/43/43 47/51/47 45/45/45
f 43/43/43 41/41/41 22/52/22
f 43/43/43 20/53/20 47/51/47
f 43/43/43 22/52/22 20/53/20
f 22/52/22 41/41/41 21/47/21
f 44/44/44 37/54/37 42/42/42
f 44/44/44 38/55/38 37/54/37
f 44/44/44 48/56/48 38/55/38
f 37/54/37 35/48/35 42/42/42
f 46/46/46 45/45/45 49/57/49
f 45/45/45 47/51/47 49/57/49
f 20/53/20 50/58/50 47/51/47
f 20/53/20 17/59/17 50/58/50
f 48/56/48 51/60/51 38/55/38
f 49/57/49 47/51/47 52/61/52
f 49/57/49 52/61/52 53/62/53
f 49/57/49 53/62/53 54/63/54
f 47/51/47 50/58/50 52/61/52
f 17/59/17 10/64/10 50/58/50
f 50/58/50 10/64/10 52/61/52
f 51/60/51 36/65/36 38/55/38
f 51/60/51 55/66/55 36/65/36
f 51/60/51 56/67/56 55/66/55
f 51/60/51 57/68/57 56/67/56
f 53/62/53 58/69/58 54/63/54
f 53/62/53 52/61/52 59/70/59
f 53/62/53 60/71/60 58/69/58
f 53/62/53 59/70/59 60/71/60
f 52/61/52 10/64/10 59/70/59
f 36/65/36 55/66/55 34/72/34
f 57/68/57 61/73/61 56/67/56
f 57/68/57 58/69/58 61/73/61
f 60/71/60 59/70/59 11/74/11
f 60/71/60 62/75/62 58/69/58
f 60/71/60 11/74/11 63/76/63
f 60/71/60 63/76/63 62/75/62
f 58/69/58 62/75/62 61/73/61
f 10/64/10 12/77/12 59/70/59
f 59/70/59 12/77/12 11/74/11
f 55/66/55 64/78/64 34/72/34
f 55/66/55 56/67/56 64/78/64
f 63/76/63 24/79/24 62/75/62
f 63/76/63 11/74/11 18/80/18
f 63/76/63 18/80/18 24/79/24
f 61/73/61 65/81/65 56/67/56
f 61/73/61 62/75/62 65/81/65
f 62/75/62 24/79/24 65/81/65
f 34/72/34 64/78/64 29/82/29
f 56/67/56 65/81/65 66/83/66
f 56/67/56 66/83/66 64/78/64
f 24/79/24 26/84/26 65/81/65
f 65/81/65 26/84/26 66/83/66
f 29/82/29 64/78/64 23/85/23
f 26/84/26 25/86/25 66/83/66
f 25/86/25 23/85/23 64/78/64
f 25/86/25 64/78/64 66/83/66
f 67/87/67 68/88/68 69/89/69
f 67/87/67 70/90/70 68/88/68
f 67/87/67 69/89/69 71/88/71
f 67/87/67 71/88/71 70/90/70
f 72/91/72 73/92/73 74/93/74
f 72/91/72 75/94/75 73/92/73
f 72/91/72 74/93/74 76/92/76
f 72/91/72 76/92/76 75/94/75
f 48/95/48 57/96/57 51/97/51
f 48/95/48 44/98/44 46/99/46
v -0.127035 0.08886251 0.172316
vt 0.243442 -0.13908
vn -0.4299448 -0.6258466 0.6507407
v -0.202801 0.219575 0.203121
vt 0.0115142 0.0946168
vn -0.5474821 -0.258497 0.7958912
v -0.254071 0.08886251 0.000941419
vt -0.0131155 -0.13908
vn -0.904652 -0.420781 -0.0674398
v -0.264521 0.219575 0
vt -0.0401568 0.174754
vn -0.952158 0.00303598 -0.305591
v 0 0.219575 0.218013
vt 0.5 0.174754
vn 0 -0.05796428 0.9983187
v 0.127035 0.08886251 0.172317
vt 0.756558 -0.13908
vn 0.4299448 -0.6258466 0.6507407
v 0.202801 0.219575 0.203121
vt 0.988486 0.0946168
vn 0.5474821 -0.258497 0.7958912
v 0.25407 0.08886251 0.000941419
vt 1.01312 -0.13908
vn 0.904652 -0.420781 -0.0674395
v 0.264521 0.219575 0
vt 1.04016 0.174754
vn 0.952158 0.00303595 -0.305591
v -0.138488 0.472927 0.138279
vt 0.0961218 0.800742
vn -0.139024 0.768699 0.624319
v 0 0.391122 0.190355
vt 0.5 0.548105
vn 0 0.31592 0.9487859
v 0.138488 0.472927 0.138279
vt 0.903878 0.800742
vn 0.139024 0.768699 0.624319
v 0.127035 0.08886251 -0.205786
vt 0.0275466 1.00798
vn 0.403516 -0.391785 -0.826849
v -0.127035 0.08886251 -0.205786
vt -0.0275466 1.00798
vn -0.4035152 -0.3917852 -0.8268494
v 0.132261 0.219575 -0.203121
vt 0.0299358 1.0427
vn 0.4512258 0.1742649 -0.8752297
v -0.132261 0.219575 -0.203121
vt -0.0299358 1.0427
vn -0.4512258 0.1742649 -0.8752297
vt -0.0550933 1.00798
vt -0.0598716 1.0427
vt 0.0550933 1.00798
vt 0.0598716 1.0427
v 0.094363 0.472927 -0.134176
vt 0.024058 1.12532
vn 0.40323 0.417664 -0.814225
v -0.0943629 0.472927 -0.134176
vt -0.024058 1.12532
vn -0.40323 0.417664 -0.814225
v -0.188726 0.472927 0
vt -0.048116 1.12532
vn -0.7601152 0.4987301 -0.4165251
v 0.188726 0.472927 0
vt 0.048116 1.12532
vn 0.7601148 0.4987309 -0.4165249
v 0 0.499298 0
vt 0 1.133
vn 0 0.9998868 0.0150532
vt -0.228497 0.921456
vt 0.5 0.952493
vt 1.2285 0.921456
o merged_1_0_node
g polygon_0
usemtl mat_body_mat_id
f 77/100/77 78/101/78 79/102/79
f 79/102/79 78/101/78 80/103/80
f 78/101/78 77/100/77 81/104/81
f 82/105/82 83/106/83 81/104/81
f 82/105/82 84/107/84 83/106/83
f 83/106/83 84/107/84 85/108/85
f 86/109/86 78/101/78 87/110/87
f 78/101/78 81/104/81 87/110/87
f 81/104/81 83/106/83 87/110/87
f 87/110/87 83/106/83 88/111/88
f 89/112/89 90/113/90 91/114/91
f 91/114/91 90/113/90 92/115/92
f 90/113/90 79/116/79 92/115/92
f 92/115/92 79/116/79 80/117/80
f 81/104/81 77/100/77 82/105/82
f 89/112/89 91/114/91 84/118/84
f 84/118/84 91/114/91 85/119/85
f 91/114/91 92/115/92 93/120/93
f 93/120/93 92/115/92 94/121/94
f 80/117/80 95/122/95 92/115/92
f 92/115/92 95/122/95 94/121/94
f 86/109/86 87/110/87 88/111/88
f 85/119/85 91/114/91 96/123/96
f 96/123/96 91/114/91 93/120/93
f 93/120/93 94/121/94 97/124/97
f 94/121/94 95/122/95 97/124/97
f 95/125/95 86/109/86 97/126/97
f 97/126/97 86/109/86 88/111/88
f 88/111/88 96/127/96 97/126/97
f 96/123/96 93/120/93 97/124/97
vt 0.895969 2.57889
v -0.324753 0.375432 0.215494
vt 0.895969 0.330294
vn -0.8486378 0.2411079 0.4708299
v 0.324753 0.375432 0.215494
vn 0.8486378 0.2411079 0.4708299
vt 0.93892 2.57889
vt 0.340846 1.72885
v 0 0.0372594 0
vt 0.26741 1.45493
vn 0 -0.999993 0.003763339
v -0.111126 1.490116E-08 0
vt 0.26741 0.767073
vn -0.1619029 -0.9867927 -0.005260769
vt 0.205918 1.72885
v 0.111126 1.490116E-08 0
vn 0.1619029 -0.9867927 -0.005260729
vt 0.267074 1.72885
o merged_2_0_node
g polygon_0
usemtl mat_tume_mat_id
f 95/128/95 98/129/98 86/128/86
f 88/128/88 99/129/99 96/128/96
f 80/128/80 78/128/78 98/129/98
f 98/129/98 78/128/78 86/128/86
f 80/128/80 98/129/98 95/128/95
f 83/130/83 85/128/85 99/129/99
f 99/129/99 85/128/85 96/128/96
f 83/130/83 99/129/99 88/128/88
f 90/131/90 89/131/89 100/132/100
f 101/133/101 90/131/90 100/132/100
f 77/134/77 101/133/101 100/132/100
f 82/134/82 77/134/77 100/132/100
f 102/133/102 82/134/82 100/132/100
f 89/131/89 84/135/84 102/133/102
f 89/131/89 102/133/102 100/132/100
f 84/135/84 82/134/82 102/133/102
f 77/134/77 79/135/79 101/133/101
f 79/135/79 90/131/90 101/133/101
vt 0.5 1.07919
vt -0.718745 0.136456
vt 0.5 0.0791882
vt 1.71875 0.136456
o merged_3_0_node
g polygon_0
usemtl mat_mouth_mat_id
f 48/136/48 49/137/49 54/138/54
f 48/136/48 54/138/54 58/139/58
vt 1.72086 0.948084
vt 0.0813841 0.968822
vt -0.304428 0.653926
vt 0.0813842 0.969236
o merged_4_0_node
g polygon_0
usemtl TEX_ANIM_EYE_mat_id
f 48/140/48 46/141/46 49/142/49
f 48/140/48 58/142/58 57/143/57
