mtllib Pikachu_M.mtl
v 0.0573279 0.0342666 0.0873194
vt 0.555595 0.530802
vn 0.400689 -0.546572 0.7353281
v -0.0607904 0.0883862 0.105292
vt 0.556765 0.534119
vn -0.212075 -0.119147 0.969963
v -0.057328 0.0342666 0.0873194
vn -0.400689 -0.546572 0.7353281
v 0.0607903 0.0883862 0.105292
vn 0.212074 -0.119147 0.9699632
v 0 0.0169206 -0.00123465
vt 0.54983 0.529739
vn 0 -0.9999994 0.0010871
v 0.121581 0.0883862 0
vt 0.54991 0.534119
vn 0.9644012 -0.05466301 -0.2587321
v 0.057328 0.0003072223 -0.00123465
vt 0.54983 0.528721
vn 0.138187 -0.9904029 -0.00253255
v 0.114656 0.0342666 -0.00123465
vt 0.54983 0.530802
vn 0.9273673 -0.3740892 -0.006864223
v -0.121581 0.0883862 0
vn -0.9644012 -0.05466301 -0.2587321
v -0.0469285 0.217152 0.0769967
vt 0.554923 0.542011
vn -0.04880919 0.5435649 0.8379468
v -0.167537 0.16049 0.112598
vt 0.552913 0.537805
vn -0.8318207 0.08923717 0.5478238
v 0.057328 0.0342666 -0.107243
vt 0.542928 0.530802
vn 0.4157261 -0.4592431 -0.7850271
v -0.057328 0.0003072223 -0.00123466
vn -0.138187 -0.9904029 -0.00253262
v -0.0573279 0.0342666 -0.107243
vn -0.4157252 -0.4592433 -0.7850275
v 0.167537 0.16049 0.112598
vn 0.8318204 0.08923724 0.5478243
v 0.0607904 0.0883862 -0.105292
vt 0.543055 0.534119
vn 0.4964091 0.149457 -0.8551261
v 0.093857 0.217152 0
vt 0.54991 0.542011
vn 0.7832717 0.5049137 -0.3626948
v -0.093857 0.217152 0
vn -0.7832717 0.5049137 -0.3626948
v -0.114656 0.0342666 -0.00123467
vn -0.9273673 -0.3740892 -0.006864583
v -0.0607903 0.0883862 -0.105292
vn -0.4964091 0.149457 -0.8551261
v 0.0469285 0.217152 0.0769967
vn 0.04880913 0.5435653 0.8379465
v 0 0.229128 0
vt 0.54991 0.542745
vn 0 1 0
v -0.0469285 0.217152 -0.0769967
vt 0.544897 0.542011
vn -0.4563679 0.3863679 -0.8015287
v 0.0469285 0.217152 -0.0769967
vn 0.4563682 0.3863682 -0.8015283
v -0.110867 0.536079 -0.000653124
vt 0.551515 0.445052
vn 0.238897 -0.9143131 0.327047
v -0.14721 0.567965 0.0351632
vt 0.551515 0.57944
vn -0.5678009 0.198316 0.7989199
v -0.16955 0.54626 -0.00919624
vn -0.9793205 -0.2014939 -0.01821169
v -0.0947678 0.581667 0.0351632
vn 0.3982161 0.4507222 0.7989202
v -0.139448 0.538258 -0.0535556
vn -0.424822 -0.348896 -0.835343
v -0.0646659 0.573665 -0.00919623
vn 0.9527147 0.3033199 -0.0182117
v -0.0870059 0.551961 -0.0535556
vn 0.5411957 -0.09648924 -0.8353425
v -0.167264 0.751923 -0.0778599
vt 0.551515 0.982986
vn -0.238898 0.9143121 -0.327049
v 0.110112 0.533941 0.00217375
vn -0.510933 -0.792801 0.332286
v 0.109128 0.582443 0.0377673
vn -0.2355321 0.5560952 0.7970463
v 0.0778983 0.584013 -0.00650621
vn -0.8108078 0.5850199 -0.0185028
v 0.154689 0.55308 0.0377673
vn 0.6037263 0.01522141 0.7970464
v 0.0922291 0.556221 -0.0507797
vn -0.5468239 0.07307199 -0.8340529
v 0.16902 0.525288 -0.0065062
vn 0.8677097 -0.4967268 -0.01850279
v 0.13779 0.526859 -0.0507797
vn 0.2924339 -0.4678018 -0.8340527
v 0.23073 0.721099 -0.0762698
vn 0.5109339 0.7928009 -0.332285
v 0 0.322523 -0.187706
vt 0.114904 0.0874011
vn 0 -0.258901 -0.9659039
v 0 0.24489 -0.124344
vt 0.101105 0.0797407
vn 0 -0.8695279 -0.4938839
v -0.116144 0.304874 -0.143174
vt 0.100983 0.0874011
vn -0.5923678 -0.5414399 -0.5966098
v 0.116144 0.304874 -0.143174
vn 0.5923678 -0.5414399 -0.5966098
v -0.124481 0.384256 -0.152383
vt 0.101432 0.0966411
vn -0.6869822 0.05190312 -0.7248182
v 0.124481 0.384256 -0.152383
vn 0.6869822 0.05190312 -0.7248182
v 0 0.442239 -0.180328
vt 0.114904 0.105881
vn 0 0.301415 -0.9534931
v -0.0996086 0.241273 -0.00845905
vt 0.0854588 0.0797407
vn -0.4387321 -0.8982243 -0.02659381
v 0.0996086 0.241273 -0.00845905
vn 0.4387321 -0.8982243 -0.02659381
v -0.108403 0.463637 -0.140608
vt 0.100983 0.105881
vn -0.581646 0.536997 -0.611001
v -0.187125 0.376756 -0.00845905
vt 0.0854588 0.0966411
vn -0.9973772 0.05666751 -0.04502761
v 0.187125 0.376756 -0.00845905
vn 0.9973772 0.05666751 -0.04502751
v 0.108403 0.463637 -0.140608
vn 0.581646 0.536997 -0.611001
v -0.162055 0.463637 -0.00845905
vt 0.0839227 0.105881
vn -0.8876008 0.4583649 -0.04545749
v -0.121995 0.463637 0.117973
vt 0.0689903 0.105881
vn -0.5761378 0.3978778 0.7139738
v 0 0.523489 -0.116845
vt 0.103905 0.112645
vn 0 0.8437555 -0.5367277
v 0.162055 0.463637 -0.00845905
vn 0.8876008 0.4583649 -0.04545739
v 0.121995 0.463637 0.117973
vn 0.5761378 0.3978778 0.7139738
v -0.0996086 0.537243 -0.00845905
vt 0.0839227 0.112645
vn -0.513212 0.857909 -0.0246112
v 0 0.542237 0.0911496
vt 0.0677485 0.112645
vn 0 0.8750851 0.4839691
v 0 0.463637 0.168505
vt 0.0568394 0.105881
vn 0 0.3108909 0.9504457
v 0.0996086 0.537243 -0.00845905
vn 0.513212 0.857909 -0.0246113
v 0 0.553444 -0.00845905
vt 0.0839227 0.115121
vn 0 0.9961004 -0.08822713
v 0 0.351195 0.191293
vt 0.00656423 0.328711
vn 0 -0.105444 0.9944252
v -0.130707 0.293253 0.120718
vt 0.545383 0.0102945
vn -0.5945799 -0.6056009 0.5288879
v 0 0.28936 0.171799
vt 0.00656423 0.0102945
vn 0 -0.5547321 0.832029
v -0.140868 0.363484 0.123722
vt 0.545383 0.391384
vn -0.6685588 0.06162348 0.7411017
v 0.130707 0.293253 0.120718
vn 0.5945799 -0.6056009 0.5288879
v 0 0.363484 0.182071
vt 0.00656423 0.391384
vn 0 0.1771129 0.9841905
v 0.140868 0.363484 0.123722
vn 0.6685588 0.06162348 0.7411017
v 0 0.217993 -0.00845905
vt 0.146916 0.0885237
vn 0 -0.9997284 0.02330419
vt 0.146916 0.0932098
vt 0.135964 0.0976221
v 0 0.250647 0.118084
vt 0.129979 0.0976221
vn 0 -0.9225791 0.3858081
vt 0.134387 0.996702
vt 0.00964278 0.462296
vt 0.477087 0.462296
vt 0.477087 0.996702
vt 0.129521 0.0963674
vt 0.129219 0.0979321
vt 0.142667 0.0815804
vt 0.126007 0.0979321
v 0.0152361 0.151151 -0.143215
vt 0.791248 0.808934
vn 0 0.5182482 0.8552303
v -0.0152361 0.151151 -0.143215
v -0.0152361 0.0586267 -0.133007
vt 0.767587 0.665694
vn 0 0.1096569 0.9939695
v -0.0152361 0.140078 -0.182365
vt 0.871921 0.774937
vn 0 0.6733133 0.7393573
v 0.0152361 0.0586267 -0.133007
v 0.0152361 0.140078 -0.182365
v -0.0152361 0.207429 -0.194465
vt 0.915568 0.915558
vn 0 0.6589712 0.7521682
v 0.0152361 0.207429 -0.194465
v -0.0152361 0.200951 -0.235696
vt 1.0019 0.890825
vn 0 0.4194859 0.9077619
v 0.0152361 0.200951 -0.235696
v 0.0152361 0.362064 -0.265924
vt 1.14816 1.26989
v -0.0152361 0.362064 -0.265924
vt 0.508649 0.105679
v -0.171574 0.304874 -0.00845905
vt 1.28231 0.178778
vn -0.8613135 -0.5037763 -0.06594354
vt 1.03865 -0.366203
vt 1.28231 0.559867
vt 0.508649 0.486768
v 0.171574 0.304874 -0.00845905
vn 0.8613138 -0.5037759 -0.06594349
v 0 0.113087 -0.162428
vt 0.822211 0.722573
vn 0.8666169 -0.223058 -0.4463409
vn 0.7699338 -0.122875 -0.6261818
v 0 0.0507917 -0.142255
vt 0.785263 0.646517
vn 0.8831894 -0.2418001 -0.4018822
v 0 0.100371 -0.203474
vt 0.906499 0.684565
vn 0.9442439 -0.252704 -0.211055
vn 0.9469936 -0.2254569 -0.2288499
v 0 0.161027 -0.220089
vt 0.958015 0.809696
vn 0.9574617 -0.2244459 -0.1813589
vn 0.961537 -0.218793 -0.166061
v 0 0.149492 -0.274816
vt 1.07183 0.770595
vn 0.972015 -0.159512 -0.172461
vn 0.9744487 -0.120981 -0.189244
v 0 0.222066 -0.29758
vt 1.17874 0.962569
vn 0.9929361 -0.09572592 -0.07010241
vn 0.9963703 -0.05414491 -0.06568602
v 0 0.165436 -0.382986
vt 1.33631 0.823807
vn 0.9977639 -0.05332129 -0.0402992
v 0 0.287163 -0.485345
vt 1.58707 1.05668
vn 0.9975248 -0.04525459 -0.05381759
vn -0.972015 -0.159512 -0.172461
vn -0.9574617 -0.2244459 -0.1813589
vn -0.961537 -0.218793 -0.166061
vn -0.9744487 -0.120981 -0.189244
vn -0.9929361 -0.09572592 -0.07010241
vn -0.9469936 -0.2254569 -0.2288499
vn -0.9442439 -0.252704 -0.211055
vn -0.9963703 -0.05414491 -0.06568602
vn -0.8831894 -0.2418001 -0.4018822
vn -0.8666169 -0.223058 -0.4463409
vn -0.9977639 -0.05332129 -0.0402992
vn -0.9975248 -0.04525459 -0.05381759
vn -0.7699338 -0.122875 -0.6261818
vt 0.136108 0.0980286
vt 0.148482 0.082475
vt 0.148482 0.0969743
vt 0.132938 0.0999158
vt 0.135785 0.0980577
vt 0.132694 0.0980577
vt 0.132422 0.0999451
vn 0 0.9463805 -0.3230541
vn 0 -0.7629828 0.6464188
o merged_0_0_node
g polygon_0
usemtl lambert3_mat_id
f 1/1/1 2/2/2 3/1/3
f 1/1/1 4/2/4 2/2/2
f 1/1/1 3/1/3 5/3/5
f 1/1/1 6/4/6 4/2/4
f 1/1/1 5/3/5 7/5/7
f 1/1/1 8/6/8 6/4/6
f 1/1/1 7/5/7 8/6/8
f 2/2/2 9/4/9 3/1/3
f 2/2/2 4/2/4 10/7/10
f 2/2/2 11/8/11 9/4/9
f 2/2/2 10/7/10 11/8/11
f 5/3/5 12/9/12 7/5/7
f 5/3/5 3/1/3 13/5/13
f 5/3/5 14/9/14 12/9/12
f 5/3/5 13/5/13 14/9/14
f 7/5/7 12/9/12 8/6/8
f 6/4/6 15/8/15 4/2/4
f 6/4/6 8/6/8 16/10/16
f 6/4/6 17/11/17 15/8/15
f 12/9/12 14/9/14 16/10/16
f 12/9/12 16/10/16 8/6/8
f 9/4/9 11/8/11 18/11/18
f 9/4/9 19/6/19 3/1/3
f 9/4/9 20/10/20 19/6/19
f 19/6/19 13/5/13 3/1/3
f 19/6/19 20/10/20 14/9/14
f 19/6/19 14/9/14 13/5/13
f 14/9/14 20/10/20 16/10/16
f 11/8/11 10/7/10 18/11/18
f 4/2/4 15/8/15 21/7/21
f 4/2/4 21/7/21 10/7/10
f 15/8/15 17/11/17 21/7/21
f 18/11/18 10/7/10 22/12/22
f 18/11/18 22/12/22 23/13/23
f 21/7/21 17/11/17 22/12/22
f 21/7/21 22/12/22 10/7/10
f 23/13/23 22/12/22 24/13/24
f 24/13/24 22/12/22 17/11/17
f 25/14/25 26/15/26 27/15/27
f 25/14/25 28/15/28 26/15/26
f 25/14/25 27/15/27 29/15/29
f 25/14/25 30/15/30 28/15/28
f 25/14/25 29/15/29 31/15/31
f 25/14/25 31/15/31 30/15/30
f 26/15/26 32/16/32 27/15/27
f 26/15/26 28/15/28 32/16/32
f 32/16/32 31/15/31 29/15/29
f 32/16/32 28/15/28 30/15/30
f 32/16/32 29/15/29 27/15/27
f 32/16/32 30/15/30 31/15/31
f 33/14/33 34/15/34 35/15/35
f 33/14/33 36/15/36 34/15/34
f 33/14/33 35/15/35 37/15/37
f 33/14/33 38/15/38 36/15/36
f 33/14/33 37/15/37 39/15/39
f 33/14/33 39/15/39 38/15/38
f 34/15/34 40/16/40 35/15/35
f 34/15/34 36/15/36 40/16/40
f 40/16/40 39/15/39 37/15/37
f 40/16/40 36/15/36 38/15/38
f 40/16/40 37/15/37 35/15/35
f 40/16/40 38/15/38 39/15/39
f 41/17/41 42/18/42 43/19/43
f 41/17/41 44/19/44 42/18/42
f 41/17/41 43/19/43 45/20/45
f 41/17/41 46/20/46 44/19/44
f 41/17/41 45/20/45 47/21/47
f 41/17/41 47/21/47 46/20/46
f 42/18/42 48/22/48 43/19/43
f 42/18/42 44/19/44 49/22/49
f 45/20/45 50/23/50 47/21/47
f 45/20/45 43/19/43 51/24/51
f 45/20/45 51/24/51 50/23/50
f 46/20/46 52/24/52 44/19/44
f 46/20/46 47/21/47 53/23/53
f 46/20/46 53/23/53 52/24/52
f 51/24/51 54/25/54 50/23/50
f 51/24/51 55/26/55 54/25/54
f 47/21/47 56/27/56 53/23/53
f 47/21/47 50/23/50 56/27/56
f 52/24/52 53/23/53 57/25/57
f 52/24/52 57/25/57 58/26/58
f 55/26/55 59/28/59 54/25/54
f 55/26/55 60/29/60 59/28/59
f 55/26/55 61/30/61 60/29/60
f 50/23/50 59/28/59 56/27/56
f 50/23/50 54/25/54 59/28/59
f 61/30/61 58/26/58 60/29/60
f 53/23/53 62/28/62 57/25/57
f 53/23/53 56/27/56 62/28/62
f 58/26/58 62/28/62 60/29/60
f 58/26/58 57/25/57 62/28/62
f 59/28/59 63/31/63 56/27/56
f 59/28/59 60/29/60 63/31/63
f 63/31/63 60/29/60 62/28/62
f 63/31/63 62/28/62 56/27/56
f 64/32/64 65/33/65 66/34/66
f 64/32/64 67/35/67 65/33/65
f 64/32/64 66/34/66 68/33/68
f 64/32/64 69/36/69 67/35/67
f 64/32/64 68/33/68 70/35/70
f 64/32/64 70/35/70 69/36/69
f 71/37/71 48/38/48 42/39/42
f 71/37/71 72/40/72 48/38/48
f 71/37/71 42/39/42 49/38/49
f 71/37/71 49/38/49 72/40/72
f 24/41/24 16/42/16 20/42/20
f 24/41/24 6/43/6 16/42/16
f 24/41/24 20/42/20 23/41/23
f 24/41/24 17/44/17 6/43/6
f 20/42/20 9/43/9 23/41/23
f 9/43/9 18/44/18 23/41/23
f 72/45/72 65/46/65 48/47/48
f 72/45/72 66/48/66 65/46/65
f 72/45/72 68/46/68 66/48/66
f 72/45/72 49/47/49 68/46/68
f 73/49/73 74/49/73 75/50/74
f 73/49/73 76/51/75 74/49/73
f 73/49/73 75/50/74 77/50/74
f 73/49/73 78/51/75 76/51/75
f 78/51/75 79/52/76 76/51/75
f 78/51/75 80/52/76 79/52/76
f 80/52/76 81/53/77 79/52/76
f 80/52/76 82/53/77 81/53/77
f 82/53/77 83/54/69 81/53/77
f 83/54/69 84/54/69 81/53/77
f 65/55/65 85/56/78 48/57/48
f 65/55/65 51/58/51 85/56/78
f 65/55/65 67/59/67 51/58/51
f 68/55/68 49/57/49 86/56/79
f 68/55/68 86/56/79 52/58/52
f 68/55/68 52/58/52 70/59/70
f 87/60/80 77/50/81 88/61/81
f 87/60/80 73/49/82 77/50/81
f 87/60/80 89/62/83 73/49/82
f 89/62/83 78/51/84 73/49/82
f 89/62/83 90/63/85 78/51/84
f 90/63/85 80/52/86 78/51/84
f 90/63/85 91/64/87 80/52/86
f 91/64/87 82/53/88 80/52/86
f 91/64/87 92/65/89 82/53/88
f 92/65/89 83/54/90 82/53/88
f 92/65/89 93/66/91 83/54/90
f 93/66/91 94/67/92 83/54/90
f 91/64/93 90/63/94 79/52/95
f 91/64/93 79/52/95 81/53/96
f 91/64/93 81/53/96 92/65/97
f 90/63/94 76/51/98 79/52/95
f 90/63/94 89/62/99 76/51/98
f 81/53/96 84/54/100 92/65/97
f 89/62/99 74/49/101 76/51/98
f 89/62/99 87/60/102 74/49/101
f 84/54/100 93/66/103 92/65/97
f 84/54/100 94/67/104 93/66/103
f 87/60/102 75/50/105 74/49/101
f 87/60/102 88/61/105 75/50/105
f 43/68/43 48/69/48 85/70/78
f 43/68/43 85/70/78 51/71/51
f 86/70/79 49/69/49 44/68/44
f 86/70/79 44/68/44 52/71/52
f 51/72/51 67/73/67 55/74/55
f 70/73/70 52/72/52 58/74/58
f 84/54/106 83/54/106 94/67/106
f 75/50/107 88/61/107 77/50/107
vt 0.936921 0.795593
vt -0.316336 0.795593
vt 0.819793 0.997688
vt -0.316336 0.997688
o merged_1_0_node
g polygon_0
usemtl TEX_ANIM_EYE_mat_id
f 67/75/67 69/76/69 55/77/55
f 55/77/55 69/76/69 61/78/61
f 61/78/61 69/76/69 58/77/58
f 58/77/58 69/76/69 70/75/70
