mtllib Mew.mtl
v -0.161827 0.43174 0.0887119
vt -0.793603 0.741264
vn -0.9274782 0.3732321 -0.0219549
v -0.10825 0.43174 -0.0432508
vt -0.458311 0.741264
vn -0.6068882 0.4375152 -0.6635263
v -0.197413 0.310357 0.0887119
vt -0.793603 0.520828
vn -0.9878888 0.145823 -0.05302379
v -0.115346 0.468491 0.0313466
vt -0.69537 0.834641
vn -0.5770162 0.6845123 -0.4455281
v -0.148612 0.309219 0.220706
vt -1.12897 0.487152
vn -0.6560391 0.139029 0.7418111
v -0.145097 0.468491 0.0694044
vt -0.792068 0.834641
vn -0.8330328 0.5372769 -0.131871
v -0.125498 0.414931 0.215753
vt -1.11639 0.706401
vn -0.5934877 0.1537879 0.7900137
v -0.122883 0.468491 0.105816
vt -0.884582 0.834641
vn -0.5586241 0.7808091 0.279779
v -0.121823 0.43174 0.214965
vt -1.11439 0.741264
vn -0.5076348 0.6998478 0.5025138
v -0.124306 0.317845 -0.0550089
vt -0.428436 0.539855
vn -0.6826264 0.04489043 -0.7293874
v -0.0552346 0.498374 0.0381902
vt -0.712759 0.910569
vn -0.3005069 0.8619488 -0.4083379
v 0 0.410371 -0.082915
vt -0.357533 0.686971
vn 0 0.29103 -0.956714
v 0 0.491507 -0.0195211
vt -0.518604 0.89312
vn 0 0.815754 -0.578399
v -0.151455 0.262169 0.217707
vt -1.12135 0.30896
vn -0.5894497 -0.6787327 0.4380308
v 0 0.285934 0.303294
vt -1.33881 0.455973
vn 0 0.05564857 0.9984504
v 0 0.314122 0.276536
vt -1.27083 0.496554
vn 0.000173841 0.230468 0.9730799
v 0 0.510228 0.18818
vt -1.04633 0.940688
vn 0 0.9034897 0.4286098
v 0 0.43174 0.265426
vt -1.2426 0.741264
vn -0.000395776 0.5513741 0.8342581
v 0 0.290824 -0.0902828
vt -0.338812 0.383225
vn 0.0004733632 -0.2400701 -0.9707555
v -0.11598 0.2732 -0.045813
vt -0.451801 0.338446
vn -0.5127304 -0.6618594 -0.5468544
v 0 0.52142 0.0694044
vt -0.792068 0.969124
vn 0 0.9947989 -0.101859
v -0.0552346 0.513331 0.0694044
vt -0.792068 0.948571
vn -0.191845 0.9757981 -0.104945
v 0 0.245354 0.283828
vt -1.28935 0.276718
vn 0 -0.712887 0.701279
v -0.187867 0.2732 0.0887119
vt -0.793603 0.338446
vn -0.7288658 -0.6743998 -0.118066
v 0 0.205537 0.215076
vt -1.11467 0.200368
vn 0 -0.945942 0.324336
v -0.0948003 0.209689 0.0887119
vt -0.793603 0.177076
vn -0.4128691 -0.9091003 -0.05545992
v 0.148612 0.309219 0.220706
vn 0.6560258 0.139056 0.7418178
v -0.0552346 0.507735 0.0980908
vt -0.864954 0.934353
vn -0.3856149 0.8940548 0.227963
v 0.121823 0.43174 0.214965
vn 0.5071341 0.7005661 0.5020181
v 0.131325 0.317845 -0.0550089
vn 0.7002622 0.04664511 -0.7123602
v 0.10825 0.43174 -0.0432508
vn 0.6007251 0.4526191 -0.6589881
v 0.151455 0.262169 0.217707
vn 0.5894497 -0.6787327 0.4380308
v 0 0.213301 -0.0270098
vt -0.499577 0.186253
vn 0 -0.8705284 -0.4921182
v 0 0.186442 0.0887119
vt -0.793603 0.11801
vn 0 -0.9995221 -0.0309108
v 0.0552346 0.507735 0.0980908
vn 0.3856149 0.8940548 0.227963
v 0.0552346 0.498374 0.0381902
vn 0.3005072 0.8619485 -0.4083382
v 0.0552346 0.513331 0.0694044
vn 0.191845 0.9757981 -0.104945
v 0.122883 0.468491 0.105816
vn 0.5586241 0.7808091 0.279779
v 0.161827 0.43174 0.0887119
vn 0.927509 0.373165 -0.0217955
v 0.125449 0.415157 0.215742
vt -1.11636 0.706872
vn 0.593496 0.153791 0.7900069
v 0.11598 0.2732 -0.045813
vn 0.4975353 -0.6787063 -0.5402003
v 0.197413 0.310357 0.0887119
vn 0.9876833 0.1499261 -0.04476462
v 0.0948003 0.209689 0.0887119
vn 0.4128691 -0.9091003 -0.05545992
v 0.115346 0.468491 0.0313466
vn 0.5770162 0.6845123 -0.4455281
v 0.145097 0.468491 0.0694044
vn 0.8330325 0.5372773 -0.1318711
v 0.187867 0.2732 0.0887119
vn 0.7288658 -0.6743998 -0.118066
v 0.11688 0.292362 -0.302857
vt -1.26275 0.528397
vn -0.9599332 0.2684261 -0.08047201
v -0.197264 0.182875 -0.27912
vt -1.30994 0.31074
vn -0.2776561 -0.05042481 -0.9593563
v -0.222304 0.190499 -0.26732
vt -1.3334 0.325897
vn -0.606806 0.686898 -0.399947
v 0.140009 0.284654 -0.31418
vt -1.24024 0.513073
vn 0.29194 -0.4046429 -0.8666229
v -0.197264 0.191287 -0.25552
vt -1.35686 0.327463
vn -0.207217 0.7141421 0.6686271
v -0.125242 0.457616 -0.37583
vt -1.14197 0.788798
vn 0.31646 -0.287501 -0.9039891
v 0.140009 0.293066 -0.29058
vt -1.28716 0.529796
vn 0.296272 0.257452 0.9197508
v -0.128144 0.450343 -0.359939
vt -1.1714 0.780394
vn -0.1739651 -0.9275404 0.3307641
v -0.125242 0.466028 -0.35223
vt -1.18888 0.805521
vn 0.3187401 0.3600241 0.8768052
v 0.00373417 0.101391 -0.177461
vt -1.58992 0.0185775
vn 0.5114109 -0.8465847 -0.14749
v -0.174839 0.190499 -0.26732
vn 0.5063741 -0.816538 0.27722
v -0.190354 0.454937 -0.422306
vt -1.02845 0.842748
vn -0.0290469 -0.337043 -0.9410411
v -0.12234 0.473301 -0.368122
vt -1.15945 0.813925
vn 0.6411602 0.7231033 -0.2569731
v -0.177183 0.526122 -0.387321
vt -1.10779 0.956784
vn 0.1916541 0.9240783 -0.3306781
v -0.190354 0.493114 -0.315198
vt -1.24137 0.918642
vn -0.03223879 0.3348419 0.9417227
v 0.17036 0.28752 -0.301902
vt -1.26465 0.51877
vn 0.9984675 0.05212877 -0.01858139
v -0.203525 0.421928 -0.350183
vt -1.16203 0.804606
vn -0.2499729 -0.9124556 0.3239419
v -0.292765 0.496998 -0.37694
vt -1.08576 1.01858
vn -0.9727952 0.218219 -0.07778151
v 0.0585102 0.147495 -0.110602
vt 1.95035 0.466763
vn 0.5007188 0.6499988 -0.5716488
v 0.0559581 0.103738 -0.142565
vt 1.94002 0.305247
vn 0.4664629 0.08146077 -0.8807818
v -0.0476597 0.105628 -0.147046
vt 1.59784 0.305247
vn -0.3854329 0.09700387 -0.9176228
v 0.103304 0.0483592 -0.0600853
vt 2.11111 0.305247
vn 0.9450355 -0.3209248 -0.06257087
v -0.0513657 0.1495 -0.115354
vt 1.5875 0.466763
vn -0.4260512 0.6672363 -0.6109633
v 0.109066 0.0930497 -0.0294471
vt 2.13178 0.466763
vn 0.9928388 0.04560829 -0.110413
v -0.041172 0.209429 -0.0228488
vt 1.62887 0.851056
vn -0.406053 0.799764 -0.442152
v 0.0436492 0.207881 -0.0191806
vt 1.90898 0.851056
vn 0.4761912 0.7811682 -0.4037551
v -0.000155019 0.0358892 -0.0742995
vt 1.76893 0.25348
vn 0.009088379 -0.8286199 -0.5597379
v 0.0518096 0.0209357 -0.0815534
vt 1.94002 0.202981
vn 0.159162 -0.8189321 -0.5513781
v -0.110686 0.0970591 -0.0389505
vt 1.40608 0.466763
vn -0.9772974 0.08327643 -0.1948201
v -0.103932 0.0521402 -0.0690474
vt 1.42675 0.305247
vn -0.947918 -0.28539 -0.141436
v 0.0828318 0.20011 0.0417225
vt 2.04904 0.851056
vn 0.7532689 0.6576909 0.00535537
v 0.047861 0.004983639 0.00300637
vn 0.3436459 -0.7916999 0.5050929
v 0.145251 0.0948338 0.0970531
vt 2.26893 0.68195
vn 0.9147534 -0.2099731 0.3451631
v 0.0497462 0.0755574 0.0732702
vn 0.133676 -0.6357228 0.7602547
v -0.0868107 0.203205 0.0343861
vt 1.48882 0.851056
vn -0.72503 0.686035 -0.0607252
v -0.00209917 0.211572 0.044774
vt 1.76893 0.886796
vn 0.000586162 0.9279461 0.372714
v -0.0518096 0.0228262 -0.0860346
vt 1.59784 0.202981
vn -0.140695 -0.8134609 -0.564346
v 0.0372168 0.161803 0.0974972
vn 0.05331682 0.126072 0.9905873
v -0.0557569 0.00687415 -0.00147471
vn -0.4163451 -0.7761642 0.4735251
v -0.0601297 0.0775621 0.0685184
vn -0.2203609 -0.6282099 0.7461859
v -0.0476045 0.16335 0.093829
vn -0.133793 0.129912 0.9824573
v -0.157564 0.100359 0.0839575
vt 1.26893 0.68195
vn -0.946506 -0.183328 0.265551
v 0.136161 0.539817 0.0635436
vt -0.792068 0.969244
vn 0.5244918 0.8507407 0.03389039
vn -0.3171532 0.9377805 -0.1413561
vn 0.0359771 0.6888759 0.723986
vn -0.06955948 0.6159137 -0.7847367
vn 0.4035578 0.4097199 0.8180897
vn 0.3525621 0.297599 -0.8872062
vn 0.9906875 0.1186179 -0.06684357
v -0.136161 0.539817 0.0635436
vn -0.5244918 0.8507407 0.03389009
vn -0.0359772 0.6888759 0.723986
vn 0.3171532 0.9377805 -0.1413561
vn -0.4035578 0.4097199 0.8180897
vn 0.06955948 0.6159137 -0.7847367
vn -0.9906877 0.118617 -0.06684328
vn -0.3525622 0.2975982 -0.8872064
vt 1.45413 0.732481
vt 0.132707 0.981247
vt -0.110669 0.721336
v 0 0.411562 0.267332
vt 1.45413 0.972809
vn 0.000158761 0.113519 0.9935358
vt 0.133229 0.981805
o merged_0_0_node
g polygon_0
usemtl TEX_ANIM_EYE_mat_id
f 1/1/1 2/2/2 3/3/3
f 1/1/1 4/4/4 2/2/2
f 1/1/1 3/3/3 5/5/5
f 1/1/1 6/6/6 4/4/4
f 1/1/1 5/5/5 7/7/7
f 1/1/1 8/8/8 6/6/6
f 1/1/1 7/7/7 9/9/9
f 1/1/1 9/9/9 8/8/8
f 2/2/2 10/10/10 3/3/3
f 2/2/2 4/4/4 11/11/11
f 2/2/2 12/12/12 10/10/10
f 2/2/2 11/11/11 13/13/13
f 2/2/2 13/13/13 12/12/12
f 5/5/5 3/3/3 14/14/14
f 5/5/5 14/14/14 15/15/15
f 5/5/5 15/15/15 16/16/16
f 9/9/9 17/17/17 8/8/8
f 9/9/9 18/18/18 17/17/17
f 10/10/10 12/12/12 19/19/19
f 10/10/10 20/20/20 3/3/3
f 10/10/10 19/19/19 20/20/20
f 11/11/11 21/21/21 13/13/13
f 11/11/11 22/22/22 21/21/21
f 14/14/14 23/23/23 15/15/15
f 14/14/14 3/3/3 24/24/24
f 14/14/14 25/25/25 23/23/23
f 14/14/14 24/24/24 26/26/26
f 14/14/14 26/26/26 25/25/25
f 24/24/24 20/20/20 26/26/26
f 24/24/24 3/3/3 20/20/20
f 16/16/16 15/15/15 27/5/27
f 8/8/8 17/17/17 28/27/28
f 28/27/28 21/21/21 22/22/22
f 28/27/28 17/17/17 21/21/21
f 18/18/18 29/9/29 17/17/17
f 12/12/12 30/10/30 19/19/19
f 12/12/12 13/13/13 31/2/31
f 12/12/12 31/2/31 30/10/30
f 23/23/23 25/25/25 32/14/32
f 23/23/23 32/14/32 15/15/15
f 15/15/15 32/14/32 27/5/27
f 26/26/26 20/20/20 33/28/33
f 26/26/26 34/29/34 25/25/25
f 26/26/26 33/28/33 34/29/34
f 20/20/20 19/19/19 33/28/33
f 21/21/21 17/17/17 35/27/35
f 21/21/21 36/11/36 13/13/13
f 21/21/21 35/27/35 37/22/37
f 21/21/21 37/22/37 36/11/36
f 13/13/13 36/11/36 31/2/31
f 29/9/29 38/8/38 17/17/17
f 29/9/29 39/1/39 38/8/38
f 29/9/29 40/30/40 39/1/39
f 40/30/40 27/5/27 39/1/39
f 17/17/17 38/8/38 35/27/35
f 30/10/30 41/20/41 19/19/19
f 30/10/30 31/2/31 42/3/42
f 30/10/30 42/3/42 41/20/41
f 27/5/27 32/14/32 42/3/42
f 27/5/27 42/3/42 39/1/39
f 19/19/19 41/20/41 33/28/33
f 25/25/25 34/29/34 43/26/43
f 25/25/25 43/26/43 32/14/32
f 33/28/33 41/20/41 43/26/43
f 33/28/33 43/26/43 34/29/34
f 36/11/36 44/4/44 31/2/31
f 31/2/31 39/1/39 42/3/42
f 31/2/31 44/4/44 39/1/39
f 38/8/38 39/1/39 45/6/45
f 45/6/45 39/1/39 44/4/44
f 32/14/32 43/26/43 46/24/46
f 32/14/32 46/24/46 42/3/42
f 46/24/46 43/26/43 41/20/41
f 46/24/46 41/20/41 42/3/42
f 47/31/47 48/32/48 49/33/49
f 47/31/47 50/34/50 48/32/48
f 47/31/47 49/33/49 51/35/51
f 47/31/47 52/36/52 50/34/50
f 47/31/47 51/35/51 53/37/53
f 47/31/47 54/38/54 52/36/52
f 47/31/47 53/37/53 55/39/55
f 47/31/47 55/39/55 54/38/54
f 48/32/48 56/40/56 49/33/49
f 48/32/48 50/34/50 57/33/57
f 48/32/48 57/33/57 56/40/56
f 51/35/51 57/33/57 53/37/53
f 51/35/51 49/33/49 56/40/56
f 51/35/51 56/40/56 57/33/57
f 52/36/52 54/38/54 58/41/58
f 52/36/52 59/42/59 50/34/50
f 52/36/52 58/41/58 60/43/60
f 52/36/52 60/43/60 59/42/59
f 55/39/55 53/37/53 59/42/59
f 55/39/55 61/44/61 54/38/54
f 55/39/55 59/42/59 60/43/60
f 55/39/55 60/43/60 61/44/61
f 57/33/57 50/34/50 62/45/62
f 57/33/57 62/45/62 53/37/53
f 62/45/62 59/42/59 53/37/53
f 62/45/62 50/34/50 59/42/59
f 58/41/58 54/38/54 63/46/63
f 58/41/58 64/47/64 60/43/60
f 58/41/58 63/46/63 64/47/64
f 61/44/61 63/46/63 54/38/54
f 61/44/61 60/43/60 64/47/64
f 61/44/61 64/47/64 63/46/63
f 65/48/65 66/49/66 67/50/67
f 65/48/65 68/51/68 66/49/66
f 65/48/65 67/50/67 69/52/69
f 65/48/65 70/53/70 68/51/68
f 65/48/65 69/52/69 71/54/71
f 65/48/65 72/55/72 70/53/70
f 65/48/65 71/54/71 72/55/72
f 66/49/66 73/56/73 67/50/67
f 66/49/66 68/51/68 74/57/74
f 66/49/66 74/57/74 73/56/73
f 69/52/69 75/58/75 71/54/71
f 69/52/69 67/50/67 76/59/76
f 69/52/69 76/59/76 75/58/75
f 70/53/70 72/55/72 77/60/77
f 70/53/70 78/49/78 68/51/68
f 70/53/70 77/60/77 79/61/79
f 70/53/70 80/48/80 78/49/78
f 70/53/70 79/61/79 80/48/80
f 74/57/74 78/49/78 73/56/73
f 74/57/74 68/51/68 78/49/78
f 71/54/71 75/58/75 81/62/81
f 71/54/71 82/63/82 72/55/72
f 71/54/71 81/62/81 82/63/82
f 72/55/72 82/63/82 77/60/77
f 67/50/67 83/64/83 76/59/76
f 67/50/67 73/56/73 83/64/83
f 79/61/79 84/55/84 80/48/80
f 79/61/79 77/60/77 84/55/84
f 77/60/77 82/63/82 84/55/84
f 78/49/78 85/50/85 73/56/73
f 78/49/78 80/48/80 86/52/86
f 78/49/78 86/52/86 85/50/85
f 85/50/85 75/58/75 76/59/76
f 85/50/85 83/64/83 73/56/73
f 85/50/85 86/52/86 75/58/75
f 85/50/85 76/59/76 83/64/83
f 80/48/80 84/55/84 86/52/86
f 81/62/81 87/54/87 82/63/82
f 81/62/81 75/58/75 88/65/88
f 81/62/81 88/65/88 87/54/87
f 87/54/87 86/52/86 84/55/84
f 87/54/87 84/55/84 82/63/82
f 87/54/87 88/65/88 86/52/86
f 86/52/86 88/65/88 75/58/75
f 89/66/89 37/22/90 35/27/91
f 89/66/89 36/11/92 37/22/90
f 89/66/89 35/27/91 38/8/93
f 89/66/89 44/4/94 36/11/92
f 89/66/89 38/8/93 45/6/95
f 89/66/89 45/6/95 44/4/94
f 90/66/96 28/27/97 22/22/98
f 90/66/96 8/8/99 28/27/97
f 90/66/96 22/22/98 11/11/100
f 90/66/96 6/6/101 8/8/99
f 90/66/96 11/11/100 4/4/102
f 90/66/96 4/4/102 6/6/101
f 16/67/16 7/68/7 5/69/5
f 16/67/16 91/70/103 7/68/7
f 16/67/16 40/71/40 91/70/103
f 16/67/16 27/69/27 40/71/40
vt 0.849411 0.355554
v -0.0992529 -0.0527476 -0.0093382
vt -0.101227 0.0182382
vn -0.5648553 -0.5125052 0.6467433
v -0.0992529 -0.03734531 0.00286718
v -0.131493 -0.0390412 -0.0266346
vt 1.10957 0.0182382
v -0.131493 -0.023639 -0.0144292
v -0.0525603 0.0360507 -0.09622
vt 0.243566 3.01634
vn 0.0177052 0.7994301 0.6004981
v -0.11176 -0.008716534 -0.0348769
vt 1 2.38493
v -0.0334985 0.0279469 -0.0859935
vt 0 2.90204
v -0.0828143 -0.0210223 -0.019348
vt 0.630143 2.21137
v -0.0334985 0.0188403 -0.0932099
vt 0 2.7736
vn 0.5648549 0.5125049 -0.646744
v -0.0525603 0.0269442 -0.103436
vt 0.243566 2.8879
vt 0.176499 1.64091
v -0.0828143 -0.0348506 -0.0303061
vt -0.0209589 0.392042
vn 0.01770511 -0.7673014 -0.6410423
vt 0.979788 1.6482
v -0.11176 -0.0225449 -0.045835
vt 1.06611 0.392042
vt 1 2.1899
vt 0.630143 2.01634
v 0.0992529 -0.0527476 -0.0093382
vn 0.5648553 -0.5125052 0.6467433
v 0.131493 -0.0390412 -0.0266346
v 0.0992529 -0.03734531 0.00286718
v 0.131493 -0.023639 -0.0144292
v 0.0525603 0.0360507 -0.09622
vn -0.0177052 0.7994301 0.6004981
v 0.0334985 0.0279469 -0.0859935
v 0.11176 -0.008716534 -0.0348769
v 0.0828143 -0.0210223 -0.019348
v 0.0334985 0.0188403 -0.0932099
vn -0.5648549 0.5125049 -0.646744
v 0.0525603 0.0269442 -0.103436
v 0.0828143 -0.0348506 -0.0303061
vn -0.01770511 -0.7673014 -0.6410423
v 0.11176 -0.0225449 -0.045835
o merged_1_0_node
g polygon_0
usemtl mat_asi_mat_id
f 7/72/7 91/72/103 9/72/9
f 9/72/9 91/72/103 18/72/18
f 18/72/18 91/72/103 29/72/29
f 29/72/29 91/72/103 40/72/40
f 92/73/104 93/73/104 94/74/104
f 94/74/104 93/73/104 95/74/104
f 96/75/105 97/76/105 98/77/105
f 98/77/105 97/76/105 99/78/105
f 98/77/105 100/79/106 96/75/105
f 96/75/105 100/79/106 101/80/106
f 100/81/106 102/82/107 101/83/106
f 101/83/106 102/82/107 103/84/107
f 101/80/106 103/85/107 96/75/105
f 96/75/105 103/85/107 97/76/105
f 98/77/105 99/78/105 100/79/106
f 100/79/106 99/78/105 102/86/107
f 94/74/104 95/74/104 103/84/107
f 103/84/107 95/74/104 97/84/105
f 102/82/107 92/73/104 103/84/107
f 103/84/107 92/73/104 94/74/104
f 99/82/105 93/73/104 102/82/107
f 102/82/107 93/73/104 92/73/104
f 93/73/104 99/82/105 95/74/104
f 95/74/104 99/82/105 97/84/105
f 104/73/108 105/74/108 106/73/108
f 106/73/108 105/74/108 107/74/108
f 108/75/109 109/77/109 110/76/109
f 110/76/109 109/77/109 111/78/109
f 109/77/109 108/75/109 112/79/110
f 112/79/110 108/75/109 113/80/110
f 112/81/110 113/83/110 114/82/111
f 114/82/111 113/83/110 115/84/111
f 113/80/110 108/75/109 115/85/111
f 115/85/111 108/75/109 110/76/109
f 109/77/109 112/79/110 111/78/109
f 111/78/109 112/79/110 114/86/111
f 105/74/108 115/84/111 107/74/108
f 107/74/108 115/84/111 110/84/109
f 114/82/111 115/84/111 104/73/108
f 104/73/108 115/84/111 105/74/108
f 111/82/109 114/82/111 106/73/108
f 106/73/108 114/82/111 104/73/108
f 106/73/108 107/74/108 111/82/109
f 111/82/109 107/74/108 110/84/109
