mtllib Dragonite.mtl
v 0.167329 0.697888 -0.183677
vt 0.254922 0.939466
vn 0.646551 0.115014 -0.7541509
v 0 0.841222 -0.172319
vn 0 0.617556 -0.786527
v 0.141522 0.839539 -0.118201
vn 0.4979868 0.6674387 -0.5536558
v 0 0.707757 -0.227175
vn 0 0.1760041 -0.9843894
v 0.215374 0.797451 -0.0307961
vn 0.9197538 0.3489879 -0.179612
v 0 0.583269 -0.217754
vn 0 -0.4068492 -0.9134954
v 0.230881 0.594046 -0.0439732
vn 0.9604649 -0.19371 -0.199959
v 0.156853 0.563044 -0.154182
vn 0.525407 -0.477075 -0.704519
v 0 0.906298 -0.0563671
vn 0 0.9727337 -0.2319249
v -0.167329 0.697888 -0.183677
vn -0.646551 0.115014 -0.7541509
v -0.141522 0.839539 -0.118201
vn -0.4979868 0.6674387 -0.5536558
v 0.221671 0.63185 0.0750952
vn 0.908588 0.0186932 0.417275
v 0.128329 0.879992 0.0270143
vn 0.449075 0.882522 0.139594
v 0.200263 0.79338 0.0634538
vn 0.8156976 0.3698568 0.4447958
v 0 0.473606 -0.112674
vn 0 -0.9064357 -0.4223439
v 0.148211 0.484737 -0.0495952
vn 0.427121 -0.869783 -0.247073
v -0.215374 0.797451 -0.0307961
vn -0.9197538 0.3489879 -0.179612
v -0.128329 0.879992 0.0270143
vn -0.449075 0.882522 0.139594
v 0.193766 0.536842 0.0951252
vn 0.9116459 -0.347252 0.219813
v 0.105597 0.789618 0.176138
vn 0.5713443 0.3844002 0.7251223
v -0.156853 0.563044 -0.154182
vn -0.525407 -0.477075 -0.704519
v 0 0.89549 0.0828523
vn 0 0.9569988 0.2900919
v -0.230881 0.594046 -0.0439732
vn -0.9604649 -0.19371 -0.199959
v -0.200263 0.79338 0.0634538
vn -0.8156976 0.3698568 0.4447958
v -0.221671 0.63185 0.0750952
vn -0.908588 0.0186932 0.417275
v 0.140428 0.454811 0.18356
vn 0.525539 -0.816785 0.238057
v 0.120339 0.550983 0.267574
vn 0.6304042 0.02065881 0.7759922
v 0.106059 0.622416 0.196718
vn 0.6670762 0.269482 0.6945422
v 0 0.847494 0.176481
vn 0 0.7688279 0.6394559
v 0 0.763913 0.225281
vn 0 0.2319879 0.9727187
v -0.148211 0.484737 -0.0495952
vn -0.427121 -0.869783 -0.247073
v -0.193766 0.536842 0.0951252
vn -0.9116459 -0.347252 0.219813
v -0.105597 0.789618 0.176138
vn -0.5713443 0.3844002 0.7251223
v 0 0.48783 0.269735
vn 0 -0.635162 0.772379
v 0 0.636561 0.238538
vn 0 0.367185 0.9301479
v 0 0.598436 0.287916
vn 0 0.3307298 0.9437255
v -0.140428 0.454811 0.18356
vn -0.525539 -0.816785 0.238057
v -0.106059 0.622416 0.196718
vn -0.6670762 0.269482 0.6945422
v -0.120339 0.550983 0.267574
vn -0.6304042 0.02065871 0.7759922
v 0.179209 0.406672 -0.2856358
vt 0.534717 0.272722
vn 0.6835926 -0.2007101 0.7017241
v 0.2323786 0.5774391 -0.259261
vt 0.670613 0.596486
vn 0.7704164 0.1274506 0.6246718
v 0.1522822 0.451291 -0.2323703
vt 0.353305 0.357318
vn -0.6873293 0.446354 0.5730153
v 0.2720102 0.432918 -0.3360942
vt 0.966725 0.322484
vn 0.732228 -0.1125555 0.6716945
v 0.0896209 0.363939 -0.1518959
vt 0.00462629 0.191704
vn -0.7148699 -0.4244358 0.5557116
v 0.2162125 0.311395 -0.3306728
vt 0.768172 0.0920838
vn 0.3824279 -0.08186506 0.9203516
v 0.1630829 0.304008 -0.2792064
vt 0.469117 0.0780784
vn 0.8004465 -0.08859444 0.5928208
v 0.2192737 0.586733 -0.273554
vt 0.650285 0.614108
vn -0.3721824 0.590477 -0.7161126
v 0.2656868 0.434099 -0.3469869
vt 0.963668 0.324723
vn -0.1893346 0.2522852 -0.9489493
v 0.2773286 0.263627 -0.3396044
vt 0.990708 0.00151864
vn -0.3628253 -0.7920811 0.4908824
v 0.1625099 0.406672 -0.302335
vt 0.548901 0.822554
vn -0.7142086 0.1436276 -0.685038
vt 0.695313 1.1696
vt 0.981612 0.875417
vt 0.393414 0.908552
vt 0.782878 0.638924
vn -0.3709217 -0.0508663 -0.9272701
vt 0.0389594 0.740194
vt 0.479394 0.624686
vn -0.828348 -0.1275007 -0.545512
vt 1.0091 0.546858
v -0.179062 0.406672 -0.2857349
vn -0.6843647 -0.2007101 0.7009711
v -0.1521932 0.451291 -0.2324393
vn 0.6866965 0.4463552 0.5737725
v -0.2322606 0.577439 -0.2594181
vn -0.771104 0.1274497 0.6238231
v -0.08962101 0.363939 -0.151896
vn 0.7142568 -0.4244357 0.5564995
v -0.2718082 0.432918 -0.3362952
vn -0.7329663 -0.1125555 0.6708887
v -0.162943 0.304008 -0.2792875
vn -0.8010988 -0.08859488 0.591939
v -0.2160155 0.311395 -0.3308119
vn -0.3834407 -0.08186492 0.9199301
v -0.2191397 0.586733 -0.273697
vn 0.3729717 0.5904766 -0.7157021
v -0.2771226 0.263627 -0.3398105
vn 0.3622942 -0.792078 0.4912793
v -0.2654718 0.4341 -0.347181
vn 0.1903805 0.2522852 -0.9487399
v -0.1623439 0.406672 -0.302416
vn 0.7149627 0.1436276 -0.6842511
vn 0.3719418 -0.05086641 -0.9268613
vt 0.511144 0.624687
vn 0.8289478 -0.1275006 -0.5445999
v 0 0.426311 0.147172
vt 0.00731838 0.539792
vn 0 -0.999754 0.0221825
vt 0.412702 0.630218
vt 0.473253 0.405045
vt 0.00731838 0.771775
vt 0.376197 0.746384
vt 0.0112082 1.06983
vt 0.0112082 0.691802
vt 0.422505 0.907646
vt 0.0931491 0.364156
o merged_0_0_node
g polygon_0
usemtl mat_wing1_mat_id
f 1/1/1 2/1/2 3/1/3
f 1/1/1 4/1/4 2/1/2
f 1/1/1 3/1/3 5/1/5
f 1/1/1 6/1/6 4/1/4
f 1/1/1 5/1/5 7/1/7
f 1/1/1 8/1/8 6/1/6
f 1/1/1 7/1/7 8/1/8
f 2/1/2 9/1/9 3/1/3
f 2/1/2 4/1/4 10/1/10
f 2/1/2 11/1/11 9/1/9
f 2/1/2 10/1/10 11/1/11
f 4/1/4 6/1/6 10/1/10
f 5/1/5 12/1/12 7/1/7
f 5/1/5 3/1/3 13/1/13
f 5/1/5 14/1/14 12/1/12
f 5/1/5 13/1/13 14/1/14
f 3/1/3 9/1/9 13/1/13
f 8/1/8 15/1/15 6/1/6
f 8/1/8 7/1/7 16/1/16
f 8/1/8 16/1/16 15/1/15
f 11/1/11 10/1/10 17/1/17
f 11/1/11 18/1/18 9/1/9
f 11/1/11 17/1/17 18/1/18
f 12/1/12 19/1/19 7/1/7
f 7/1/7 19/1/19 16/1/16
f 14/1/14 13/1/13 20/1/20
f 6/1/6 15/1/15 21/1/21
f 6/1/6 21/1/21 10/1/10
f 9/1/9 18/1/18 22/1/22
f 9/1/9 22/1/22 13/1/13
f 17/1/17 10/1/10 23/1/23
f 17/1/17 24/1/24 18/1/18
f 17/1/17 23/1/23 25/1/25
f 17/1/17 25/1/25 24/1/24
f 10/1/10 21/1/21 23/1/23
f 19/1/19 26/1/26 16/1/16
f 19/1/19 27/1/27 26/1/26
f 19/1/19 28/1/28 27/1/27
f 20/1/20 13/1/13 29/1/29
f 20/1/20 30/1/30 28/1/28
f 20/1/20 29/1/29 30/1/30
f 22/1/22 18/1/18 29/1/29
f 22/1/22 29/1/29 13/1/13
f 15/1/15 31/1/31 21/1/21
f 21/1/21 31/1/31 23/1/23
f 25/1/25 23/1/23 32/1/32
f 23/1/23 31/1/31 32/1/32
f 24/1/24 33/1/33 18/1/18
f 29/1/29 33/1/33 30/1/30
f 29/1/29 18/1/18 33/1/33
f 26/1/26 27/1/27 34/1/34
f 28/1/28 30/1/30 35/1/35
f 28/1/28 36/1/36 27/1/27
f 28/1/28 35/1/35 36/1/36
f 31/1/31 37/1/37 32/1/32
f 33/1/33 38/1/38 30/1/30
f 35/1/35 38/1/38 36/1/36
f 35/1/35 30/1/30 38/1/38
f 34/1/34 39/1/39 37/1/37
f 39/1/39 38/1/38 32/1/32
f 39/1/39 36/1/36 38/1/38
f 39/1/39 32/1/32 37/1/37
f 40/2/40 41/3/41 42/4/42
f 40/2/40 43/5/43 41/3/41
f 40/2/40 42/4/42 44/6/44
f 40/2/40 45/7/45 43/5/43
f 40/2/40 44/6/44 46/8/46
f 40/2/40 46/8/46 45/7/45
f 41/3/41 47/9/47 42/4/42
f 41/3/41 43/5/43 48/10/48
f 41/3/41 48/10/48 47/9/47
f 45/7/45 49/11/49 43/5/43
f 43/5/43 49/11/49 48/10/48
f 50/12/50 47/13/47 48/14/48
f 50/12/50 42/15/42 47/13/47
f 50/12/50 48/14/48 45/16/51
f 50/12/50 44/17/44 42/15/42
f 50/12/50 45/16/51 46/18/52
f 50/12/50 46/18/52 44/17/44
f 48/14/48 49/19/49 45/16/51
f 51/2/53 52/4/54 53/3/55
f 51/2/53 54/6/56 52/4/54
f 51/2/53 53/3/55 55/5/57
f 51/2/53 56/8/58 54/6/56
f 51/2/53 55/5/57 57/7/59
f 51/2/53 57/7/59 56/8/58
f 52/4/54 58/9/60 53/3/55
f 55/5/57 59/11/61 57/7/59
f 55/5/57 53/3/55 60/10/62
f 55/5/57 60/10/62 59/11/61
f 60/10/62 53/3/55 58/9/60
f 61/12/63 60/14/62 58/13/60
f 61/12/63 57/16/64 60/14/62
f 61/12/63 58/13/60 52/15/54
f 61/12/63 56/20/65 57/16/64
f 61/12/63 52/15/54 54/17/56
f 61/12/63 54/17/56 56/20/65
f 60/14/62 57/16/64 59/19/61
f 62/21/66 37/22/37 31/23/31
f 62/21/66 34/24/34 37/22/37
f 62/21/66 26/22/26 34/24/34
f 62/21/66 16/23/16 26/22/26
f 62/25/66 31/25/31 15/25/15
f 62/25/66 15/25/15 16/25/16
f 36/26/36 34/27/34 27/28/27
f 36/26/36 39/28/39 34/27/34
f 12/29/12 28/29/28 19/29/19
f 25/29/25 32/29/32 38/29/38
v -0.108148 0.210639 -0.187342
vt 0.964248 0.945001
vn -0.8092537 0.3426819 -0.4771558
v -0.103875 0.159753 -0.327893
vn -0.8538563 -0.3372701 -0.3964571
v -0.11797 0.115676 -0.18928
vn -0.6783739 -0.6579729 -0.3269259
v -0.059826 0.258169 -0.337141
vn -0.5658972 0.8077042 0.1654521
v -0.216295 0.209391 0
vn -0.9750903 0.03124121 -0.2195971
v 0 0.258589 -0.193154
vn 0 0.7151693 -0.6989513
v -0.154318 0.430289 0
vn -0.762906 0.590918 -0.262279
v -0.0709018 0.430289 -0.126597
vn -0.4887032 0.5060872 -0.7106652
v 0 0.392433 -0.589153
vn 0 0.2670221 -0.9636904
v -0.224515 0.115676 0.00576935
vn -0.9328633 -0.3595091 -0.02279001
v 0.0709019 0.430289 -0.126597
vn 0.4887032 0.5060872 -0.7106652
v 0.0598261 0.258169 -0.337141
vn 0.5658972 0.8077042 0.1654521
v 0.108148 0.210639 -0.187342
vn 0.8092537 0.3426819 -0.4771558
v 0 0.494218 -0.0508075
vn 0 0.9978603 -0.06538322
v -0.122637 0.0983598 0.166441
vn -0.4390689 -0.6320969 0.6384919
v 0.103875 0.159753 -0.327893
vn 0.8538563 -0.3372701 -0.3964571
v 0.154318 0.430289 0
vn 0.7629063 0.5909182 -0.2622781
v 0.11797 0.115676 -0.18928
vn 0.6783739 -0.6579729 -0.3269259
v 0.216295 0.209391 0
vn 0.9750903 0.03124121 -0.2195971
v -0.108148 0.209391 0.191647
vn -0.4418561 -0.111361 0.8901471
v 0.224515 0.115676 0.00576935
vn 0.9328633 -0.3595091 -0.02278971
v 0.122637 0.0983598 0.166441
vn 0.4390689 -0.6320969 0.6384919
v 0.108148 0.209391 0.191647
vn 0.4418561 -0.111361 0.8901471
v 0 0.05783571 0.00488111
vt 0 -2.18756
vn 0 -0.9988493 0.04795872
v 0 0.0809237 -0.262253
vt 0 -8.32876
vn 0 -0.9775874 -0.2105299
vt 0.60309 -6.65117
vt -0.60309 -6.65117
v 0.0610013 0.0427605 0.00488111
vt 0.386105 -2.18756
vn -0.4140231 -0.9093701 -0.04038481
v -0.0610013 0.0427605 0.00488111
vt -0.386105 -2.18756
vn 0.4140231 -0.9093701 -0.0403847
vt 0.46809 1.52358
vt -0.46809 1.52358
vt 0.531031 -9.83779
vt -0.531031 -9.83779
v 0 0.133832 -0.422555
vt 0 -12.014
vn 0 -0.6614071 -0.7500271
v 0 0.209415 0.228456
vt 0 4.06828
vn 0 0.0352965 0.9993769
vt 0.440507 4.06772
vt 0.37838 -18.4726
vt -0.378379 -18.4726
vt -0.440507 4.06772
v 0.0771592 0.430289 0.117874
vt 0.39489 9.13515
vn 0.085784 0.743756 0.662924
v -0.0771592 0.430289 0.117874
vt -0.394889 9.13515
vn -0.0857839 0.743756 0.662924
vt 0 13.0181
vt 0.790582 11.8476
vt -0.790581 11.8476
v 0.207496 0.949211 0.02255921
vt 0.0991715 0.810248
vn 0.730615 0.3758239 0.570051
v 0.0990386 0.962163 0.07788671
vn -0.7174897 0.5580947 -0.4168198
v 0.12631 0.970956 0.103025
vn 0.2261171 0.8623562 0.4530042
v 0.180225 0.9404169 -0.002579435
vn -0.7186934 0.1323531 -0.6826144
v 0.125335 0.936234 0.08732821
vn 0.22996 -0.9690749 0.08951139
v 0.255728 1.00258 -0.04843189
vn 0.9404375 0.05927167 0.3347599
v 0.203418 0.9145 0.01022461
vn 0.412968 -0.8854629 0.213103
v 0.261316 0.974463 -0.0735587
vn 0.9638436 -0.2351479 0.125343
v 0.0940856 0.866598 0.145587
vn -0.6447877 -0.1455209 0.7503816
v -0.207496 0.9492109 0.02255921
vn -0.7306151 0.3758251 0.5700501
v -0.12631 0.970956 0.103025
vn -0.2261171 0.8623562 0.4530042
v -0.0990386 0.9621629 0.07788672
vn 0.7174892 0.5580952 -0.4168201
v -0.125335 0.9362339 0.08732822
vn -0.2299599 -0.9690748 0.08951247
v -0.180225 0.9404169 -0.002579455
vn 0.7186928 0.132354 -0.6826148
v -0.203418 0.9144999 0.01022462
vn -0.4129679 -0.8854628 0.2131039
v -0.255728 1.00258 -0.04843188
vn -0.9404375 0.05927023 0.3347602
v -0.261316 0.9744629 -0.07355869
vn -0.9638435 -0.2351481 0.1253441
v -0.0940856 0.866598 0.145587
vn 0.644785 -0.145521 0.7503839
v -0.122003 0 0.00488111
vt 0.982544 0.0398195
vn -0.3844889 -0.9215777 -0.05350558
vt 0.982544 0.944193
vt 0.982544 0.774736
vt 0.982544 0.90395
v 0.122003 0 0.00488111
vn 0.3844889 -0.9215777 -0.05350529
v -0.265546 0.341584 0.203321
vt 0.944028 0.133943
vn -0.7963892 0.143083 0.5876151
vt 0.944028 0.883221
v 0.265546 0.341584 0.203321
vn 0.7963892 0.143083 0.5876151
v 0 0.985163 0.0153241
vt 0.713834 0.73248
vn 0 0.9953211 0.09662271
v -0.076712 0.864758 -0.0408622
vn -0.7071069 0.6140949 -0.3505529
v 0 0.85192 0.0913852
vn 0 0.4957571 0.8684612
v 0.076712 0.864758 -0.0408622
vn 0.7071069 0.6140949 -0.3505529
o merged_1_0_node
g polygon_0
usemtl mat_hara1_mat_id
f 63/30/67 64/30/68 65/30/69
f 63/30/67 66/30/70 64/30/68
f 63/30/67 65/30/69 67/30/71
f 63/30/67 68/30/72 66/30/70
f 63/30/67 67/30/71 69/30/73
f 63/30/67 70/30/74 68/30/72
f 63/30/67 69/30/73 70/30/74
f 64/30/68 66/30/70 71/30/75
f 65/30/69 72/30/76 67/30/71
f 68/30/72 70/30/74 73/30/77
f 68/30/72 74/30/78 66/30/70
f 68/30/72 73/30/77 75/30/79
f 68/30/72 75/30/79 74/30/78
f 66/30/70 74/30/78 71/30/75
f 69/30/73 76/30/80 70/30/74
f 70/30/74 76/30/80 73/30/77
f 72/30/76 77/30/81 67/30/71
f 75/30/79 78/30/82 74/30/78
f 75/30/79 73/30/77 79/30/83
f 75/30/79 80/30/84 78/30/82
f 75/30/79 79/30/83 81/30/85
f 75/30/79 81/30/85 80/30/84
f 79/30/83 73/30/77 76/30/80
f 78/30/82 71/30/75 74/30/78
f 77/30/81 82/30/86 67/30/71
f 81/30/85 83/30/87 80/30/84
f 81/30/85 84/30/88 83/30/87
f 81/30/85 85/30/89 84/30/88
f 86/31/90 87/32/91 80/33/84
f 86/31/90 65/34/69 87/32/91
f 86/31/90 80/33/84 88/35/92
f 86/31/90 89/36/93 65/34/69
f 86/31/90 88/35/92 84/37/88
f 86/31/90 77/38/81 89/36/93
f 86/31/90 84/37/88 77/38/81
f 87/32/91 78/39/82 80/33/84
f 87/32/91 65/34/69 64/40/68
f 87/32/91 90/41/94 78/39/82
f 87/32/91 64/40/68 90/41/94
f 84/37/88 91/42/95 77/38/81
f 84/37/88 85/43/89 91/42/95
f 78/39/82 90/41/94 71/44/75
f 64/40/68 71/45/75 90/41/94
f 77/38/81 91/42/95 82/46/86
f 85/43/89 92/47/96 91/42/95
f 82/46/86 91/42/95 93/48/97
f 91/42/95 92/47/96 93/48/97
f 92/47/96 76/49/80 93/48/97
f 92/47/96 79/50/83 76/49/80
f 93/48/97 76/49/80 69/51/73
f 94/52/98 95/52/99 96/52/100
f 94/52/98 97/52/101 95/52/99
f 94/52/98 96/52/100 98/52/102
f 94/52/98 99/52/103 97/52/101
f 94/52/98 98/52/102 100/52/104
f 94/52/98 101/52/105 99/52/103
f 94/52/98 100/52/104 101/52/105
f 97/52/101 98/52/102 95/52/99
f 97/52/101 99/52/103 101/52/105
f 97/52/101 100/52/104 98/52/102
f 97/52/101 101/52/105 100/52/104
f 96/52/100 95/52/99 102/52/106
f 96/52/100 102/52/106 98/52/102
f 98/52/102 102/52/106 95/52/99
f 103/52/107 104/52/108 105/52/109
f 103/52/107 106/52/110 104/52/108
f 103/52/107 105/52/109 107/52/111
f 103/52/107 108/52/112 106/52/110
f 103/52/107 107/52/111 109/52/113
f 103/52/107 110/52/114 108/52/112
f 103/52/107 109/52/113 110/52/114
f 107/52/111 105/52/109 106/52/110
f 107/52/111 106/52/110 108/52/112
f 107/52/111 110/52/114 109/52/113
f 107/52/111 108/52/112 110/52/114
f 104/52/108 111/52/115 105/52/109
f 104/52/108 106/52/110 111/52/115
f 111/52/115 106/52/110 105/52/109
f 112/53/116 65/54/69 89/55/93
f 112/53/116 72/54/76 65/54/69
f 112/53/116 89/55/93 77/56/81
f 112/53/116 77/56/81 72/54/76
f 113/53/117 84/56/88 88/55/92
f 113/53/117 83/54/87 84/56/88
f 113/53/117 88/55/92 80/54/84
f 113/53/117 80/54/84 83/54/87
f 114/57/118 93/58/97 69/58/73
f 114/57/118 82/58/86 93/58/97
f 114/57/118 69/58/73 67/58/71
f 114/57/118 67/58/71 82/58/86
f 115/57/119 79/58/83 92/58/96
f 115/57/119 81/58/85 79/58/83
f 115/57/119 92/58/96 85/58/89
f 115/57/119 85/58/89 81/58/85
f 116/59/120 117/59/121 118/59/122
f 116/59/120 119/59/123 117/59/121
f 116/59/120 118/59/122 119/59/123
vt -0.0517768 0.746758
vt 0.126 0.996521
vt 0.998819 0.760851
vt 1.09938 1.00214
o merged_2_0_node
g polygon_0
usemtl TEX_ANIM_EYE_mat_id
f 38/60/38 33/61/33 25/62/25
f 25/62/25 33/61/33 24/63/24
f 14/63/14 20/61/20 12/62/12
f 12/62/12 20/61/20 28/60/28
