mtllib Charizard_Normal.mtl
v 0 0.273918 0.547971
vt 0.500175 -0.87844
vn -0.000812354 -0.9887131 0.149819
v -0.139737 0.285594 0.370346
vt 0.000786185 -1.01387
vn -0.4870258 -0.8573166 -0.1667759
v 0 0.253254 0.3658019
vt 0.500175 -1.35018
vn 0 -0.988366 -0.152094
v -0.154503 0.325925 0.55901
vt -0.155124 -0.26292
vn -0.6911891 -0.6683371 0.2749241
v 0.139737 0.285594 0.370346
vt 0.999564 -1.01387
vn 0.4870258 -0.8573166 -0.1667759
v -0.0744395 0.307075 0.6540579
vt 0.184305 -0.292053
vn -0.4884191 -0.7003893 0.5204822
v 0.154503 0.325925 0.55901
vt 1.15547 -0.26292
vn 0.6918228 -0.6690198 0.2716499
v 0 0.303654 0.6635259
vt 0.500175 -0.319163
vn 0.007272791 -0.758141 0.6520501
v 0.07684 0.307323 0.652777
vt 0.826227 -0.291179
vn 0.4882962 -0.7015433 0.5190412
v 0 0.318336 0.2683899
vt 0.500175 -0.961612
vn 0 -0.8143979 -0.5803069
v -0.193884 0.367283 0.3818219
vt -0.262891 -0.0950298
vn -0.9311159 -0.357372 -0.0728595
v -0.132145 0.392523 0.2021709
vt -0.0821127 -0.0950298
vn -0.5712951 -0.5278691 -0.6284712
v 0.193884 0.367283 0.3818219
vt 1.26324 -0.0950298
vn 0.9311159 -0.357372 -0.0728595
v 0.158148 0.374784 0.568018
vt 1.13804 0.248246
vn 0.9181606 0.01870479 0.3957668
v -0.158148 0.374784 0.568018
vt -0.137692 0.248246
vn -0.9162539 0.0170516 0.400235
v -0.203387 0.417593 0.388891
vt -0.279535 0.428156
vn -0.9964869 0.06835289 0.04839139
v -0.141631 0.509144 0.1725219
vt -0.123914 1.05178
vn -0.7352018 0.09307488 -0.6714278
v 0.132145 0.392523 0.2021709
vt 1.08246 -0.0950298
vn 0.5712948 -0.5278688 -0.6284717
v 0.203387 0.417593 0.388891
vt 1.27988 0.428156
vn 0.9964869 0.06835299 0.04839139
v 0.185654 0.467143 0.3958519
vt 1.29628 0.943444
vn 0.9721922 0.218231 0.08495592
v 0.140299 0.422906 0.5768899
vt 1.12087 0.751695
vn 0.8000378 0.269493 0.5360159
v -0.185654 0.467143 0.3958519
vt -0.295928 0.943444
vn -0.9721922 0.218231 0.08495582
v -0.123338 0.614995 0.2195279
vt -0.0433039 2.1986
vn -0.6551697 0.6392417 -0.4026448
v 0 0.593522 0.1565979
vt 0.500175 1.88946
vn 0 0.4530839 -0.8914679
v 0.141631 0.509144 0.1725219
vt 1.12426 1.05178
vn 0.7352018 0.09307498 -0.6714278
v 0.123338 0.614995 0.2195279
vt 1.04365 2.1986
vn 0.6551697 0.6392417 -0.4026448
v 0.171795 0.58784 0.4128099
vt 1.15665 2.1986
vn 0.9508444 0.3068901 0.04139322
v -0.171795 0.58784 0.4128099
vt -0.156296 2.1986
vn -0.9508444 0.3068901 0.04139322
v 0 0.651291 0.26818
vt 0.500175 3.06326
vn 0 0.9644636 -0.2642159
v -0.116653 0.66654 0.4238669
vt 0.112412 3.26198
vn -0.3886578 0.9080097 0.1564079
v -0.140299 0.422906 0.5768899
vt -0.120524 0.751695
vn -0.79877 0.268122 0.538588
v 0.116653 0.66654 0.4238669
vt 0.887938 3.26198
vn 0.3886578 0.9080097 0.1564079
v 0.12356 0.567803 0.5554259
vt 1.00243 2.1986
vn 0.5776399 0.4494019 0.681447
v -0.12356 0.567803 0.5554259
vt -0.0020842 2.1986
vn -0.5776399 0.4494019 0.681447
v 0 0.59768 0.5078629
vt 0.500175 3.10976
vn 0 0.775019 0.631938
v 0 0.553823 0.542441
vt 0.500175 2.1986
vn 0 0.5754377 0.8178456
v 0 0.455691 0.6079029
vt 0.500175 1.13048
vn -0.00168608 0.635624 0.771997
v 0 0.655955 0.4223799
vt 0.500175 3.49603
vn 0 0.975351 0.220659
v 0 0.425424 0.1459499
vt 0.460659 2.8651
vn 0 -0.3554341 -0.9347014
vt 0.460659 2.47172
vt -0.00585058 2.77567
vt 0.927169 2.77567
vt -0.0393406 3.17791
vt 0.960659 3.17791
vt 0.460659 3.47172
v 0 0.354595 0.692748
vt 0.497428 0.333926
vn 0.009646759 -0.226016 0.9740759
vt 0.257442 -0.267978
vt 0.497428 -0.306559
v -0.0761957 0.362932 0.6758419
vt 0.263825 0.414424
vn -0.603712 -0.109187 0.7896899
vt 0.745149 -0.266734
v 0 0.418331 0.691761
vt 0.497428 0.985883
vn 0.008294519 0.3549149 0.9348618
v 0.0786528 0.363338 0.6743209
vt 0.73856 0.417019
vn 0.6040512 -0.109109 0.7894412
vt 0.0128008 0.500927
vt -0.00044309 -0.22652
vt 0.982055 0.500927
vt 0.995299 -0.22652
v -0.0675959 0.429069 0.6795279
vt 0.270113 1.10767
vn -0.5042642 0.5377212 0.6757023
v 0.0697759 0.429552 0.6781579
vt 0.73207 1.11159
vn 0.503175 0.540623 0.674197
vt 0.0258447 1.23853
vt 0.969011 1.23853
v 0.126053 0.675566 -0.02904286
vt 0.514369 -0.422243
vn 0.100248 0.5587989 -0.8232218
v 0.00836776 0.625329 0.2934549
vt 0.0143686 -1.29402
vn -0.4695587 0.8822495 -0.03391788
v 0.108553 0.637239 0.3153449
vt 1.01437 -1.29402
vn 0.2390939 0.9636285 0.1193909
v 0.0296064 0.559872 0.2128169
vn -0.7034239 -0.4899839 -0.5148889
v 0.129792 0.571783 0.2347069
vn 0.9142329 -0.372467 -0.15952
v -0.15382 0.676238 -0.02561096
vn -0.239129 0.5620769 -0.7917619
v -0.119836 0.629299 0.316471
v -0.0197591 0.634599 0.291678
vn 0.3266401 0.9450453 -0.013989
v -0.140512 0.563694 0.2358079
vn -0.887456 -0.438018 -0.143395
v -0.0404357 0.568994 0.2110139
vn 0.7246408 -0.4271119 -0.5408059
vt 0.499758 3.64973
vt 0.748539 2.80851
vt 0.999758 2.96885
vt 0.499758 2.64973
vt 0.258746 2.80355
vt -0.000241667 2.96885
o merged_0_0_node
g polygon_0
usemtl mat_mouth_mat_id
f 1/1/1 2/2/2 3/3/3
f 1/1/1 4/4/4 2/2/2
f 1/1/1 3/3/3 5/5/5
f 1/1/1 6/6/6 4/4/4
f 1/1/1 5/5/5 7/7/7
f 1/1/1 8/8/8 6/6/6
f 1/1/1 7/7/7 9/9/9
f 1/1/1 9/9/9 8/8/8
f 2/2/2 10/10/10 3/3/3
f 2/2/2 4/4/4 11/11/11
f 2/2/2 12/12/12 10/10/10
f 2/2/2 11/11/11 12/12/12
f 3/3/3 10/10/10 5/5/5
f 7/7/7 5/5/5 13/13/13
f 7/7/7 13/13/13 14/14/14
f 4/4/4 15/15/15 11/11/11
f 12/12/12 11/11/11 16/16/16
f 12/12/12 16/16/16 17/17/17
f 11/11/11 15/15/15 16/16/16
f 10/10/10 18/18/18 5/5/5
f 5/5/5 18/18/18 13/13/13
f 14/14/14 13/13/13 19/19/19
f 14/14/14 19/19/19 20/20/20
f 14/14/14 20/20/20 21/21/21
f 13/13/13 18/18/18 19/19/19
f 17/17/17 16/16/16 22/22/22
f 17/17/17 22/22/22 23/23/23
f 17/17/17 23/23/23 24/24/24
f 16/16/16 15/15/15 22/22/22
f 20/20/20 19/19/19 25/25/25
f 20/20/20 25/25/25 26/26/26
f 20/20/20 26/26/26 27/27/27
f 25/25/25 19/19/19 18/18/18
f 25/25/25 24/24/24 26/26/26
f 23/23/23 22/22/22 28/28/28
f 23/23/23 29/29/29 24/24/24
f 23/23/23 28/28/28 30/30/30
f 23/23/23 30/30/30 29/29/29
f 24/24/24 29/29/29 26/26/26
f 15/15/15 31/31/31 22/22/22
f 27/27/27 26/26/26 32/32/32
f 27/27/27 32/32/32 33/33/33
f 26/26/26 29/29/29 32/32/32
f 28/28/28 34/34/34 30/30/30
f 33/33/33 32/32/32 35/35/35
f 33/33/33 35/35/35 36/36/36
f 33/33/33 36/36/36 37/37/37
f 34/34/34 35/35/35 30/30/30
f 34/34/34 37/37/37 36/36/36
f 34/34/34 36/36/36 35/35/35
f 29/29/29 38/38/38 32/32/32
f 29/29/29 30/30/30 38/38/38
f 38/38/38 30/30/30 35/35/35
f 38/38/38 35/35/35 32/32/32
f 39/39/39 10/40/10 12/41/12
f 39/39/39 18/42/18 10/40/10
f 39/39/39 12/41/12 17/43/17
f 39/39/39 25/44/25 18/42/18
f 39/39/39 17/43/17 24/45/24
f 39/39/39 24/45/24 25/44/25
f 40/46/40 6/47/6 8/48/8
f 40/46/40 41/49/41 6/47/6
f 40/46/40 8/48/8 9/50/9
f 40/46/40 42/51/42 41/49/41
f 40/46/40 9/50/9 43/52/43
f 40/46/40 43/52/43 42/51/42
f 6/47/6 41/49/41 15/53/15
f 6/47/6 15/53/15 4/54/4
f 9/50/9 14/55/14 43/52/43
f 9/50/9 7/56/7 14/55/14
f 42/51/42 44/57/44 41/49/41
f 42/51/42 43/52/43 45/58/45
f 15/53/15 41/49/41 31/59/31
f 31/59/31 41/49/41 44/57/44
f 14/55/14 21/60/21 43/52/43
f 43/52/43 21/60/21 45/58/45
f 46/61/46 47/62/47 48/63/48
f 46/61/46 49/62/49 47/62/47
f 46/61/46 48/63/48 50/63/50
f 46/61/46 50/63/50 49/62/49
f 51/61/51 52/62/30 53/63/52
f 51/61/51 54/62/53 52/62/30
f 51/61/51 53/63/52 55/63/54
f 51/61/51 55/63/54 54/62/53
f 37/64/37 45/65/45 21/66/21
f 37/64/37 42/67/42 45/65/45
f 37/64/37 44/68/44 42/67/42
f 37/64/37 31/69/31 44/68/44
v -0.0924911 0.313782 -0.0927451
vt -1.73017 0.461583
vn -0.6742367 0.7350776 -0.07117426
v -0.0723018 0.3332911 -0.3707529
vt -1.47874 0.482949
vn -0.6886851 0.7165961 -0.110467
v -0.127199 0.183064 -0.231143
vt -1.72513 0.0994487
vn -0.6422698 -0.2794829 -0.7137078
v 0.0588915 0.3332911 -0.3707529
vn 0.7249299 0.6787529 -0.117351
v -0.184982 0.157837 -0.0234906
vt -2.00193 0.335647
vn -0.9738049 0.157723 -0.163791
v 0.0924912 0.313782 -0.0927451
vn 0.691835 0.712666 -0.116067
v -0.13181 0.239031 0.101799
vt -2.00193 0.897631
vn -0.8501228 0.4140059 0.3254079
v 0.0659048 0.323388 0.0471318
vt -1.8032 0.897631
vn 0.448796 0.893437 0.0187728
v -0.0659048 0.323388 0.0471318
vn -0.448796 0.893437 0.0187725
v -0.0696679 0.251516 -0.397639
vt -1.47622 0.301882
vn -0.7904126 -0.5091314 -0.3406363
v -0.00627688 0.320821 -0.6739179
vt -1.22731 0.504315
vn 0.00128259 0.2411309 -0.9704918
v -0.174446 0.10427 -0.106149
vt -2.00193 0.0994487
vn -0.9407086 -0.2168529 -0.2608489
v 0.13181 0.239031 0.101799
vn 0.8501228 0.4140059 0.3254079
v 0.0872232 0.183064 -0.231143
vn 0.5914157 -0.3096389 -0.7445477
v 0.184982 0.157837 -0.0234906
vn 0.9664314 0.1558651 -0.2042461
v 0.174446 0.10427 -0.106149
vn 0.9264523 -0.1687781 -0.3364521
v 0 0.33694 0.391481
vt -2.00193 0.949896
vn 0 0.4716042 0.8818104
v 0.0562575 0.251516 -0.397639
vn 0.7650257 -0.5542749 -0.3278949
v 0.2735288 0.5995055 0.144172
vt 0.570481 2.2636
vn -0.1844357 0.9824952 -0.02620156
v 0.3087433 0.4091754 -0.1162089
vt 0.668393 1.49763
vn -0.1616581 -0.5867805 -0.7934451
v 0.2422973 0.3598678 -0.1461997
vt 0.530686 1.37398
vn -0.2162787 -0.5425296 -0.8117174
v 0.4912496 0.4114117 -0.2349006
vt 1.04663 1.2636
vn -0.1633832 -0.5725898 -0.8033972
v 0.1804177 0.3792474 -0.06240707
vt 0.385357 1.56632
vn -0.1842999 -0.6302318 -0.7542158
v 0.2907051 0.5599034 0.1698357
vt 0.593293 2.2636
vn 0.3724937 -0.3250289 0.8692552
v 0.008734651 0.32479 -0.0595123
vt 0.0466338 1.50165
vn -0.2250663 -0.469833 -0.853582
v -0.2735258 0.5995048 0.1441751
vn 0.1844399 0.9824945 -0.02620135
v -0.2422955 0.3598662 -0.1462004
vn 0.2162724 -0.5425273 -0.8117207
v -0.3087409 0.4091735 -0.1162089
vn 0.1616533 -0.5867774 -0.7934485
v -0.1804163 0.3792464 -0.06240676
vn 0.1842945 -0.6302288 -0.7542197
v -0.4912458 0.4114084 -0.2349018
vn 0.1633784 -0.5725866 -0.8034004
v -0.008734654 0.32479 -0.0595123
vn 0.2250612 -0.4698298 -0.853585
v -0.2907023 0.5599026 0.1698392
vn -0.372491 -0.3250277 0.8692568
v 0.127199 -0.000867581 -0.0380151
vt 0.996177 0.103204
vn 0.349228 -0.9153809 -0.200294
v -0.134881 0.0164073 0.0681624
vt -0.0187466 0.485658
vn -0.323002 -0.894819 0.30817
v -0.127199 -0.000867558 -0.0380151
vt 0.011004 0.103204
vn -0.349228 -0.9153809 -0.200294
v 0.134881 0.0164073 0.0681624
vt 1.02593 0.485658
vn 0.323002 -0.894819 0.30817
v 0 0.0846841 -0.136373
vt 0.503591 -0.0366385
vn -0.008213872 -0.7336951 -0.6794292
vt 1.21995 0.485658
vt 1.17915 0.103204
vt -0.212767 0.485658
v -0.0659048 0.135608 0.168822
vt 0.248369 1.06536
vn -0.247785 -0.512427 0.8222051
vt -0.171966 0.103204
v 0.0659048 0.135608 0.168822
vt 0.758812 1.06536
vn 0.247785 -0.512427 0.8222051
vt 0.503591 1.49131
vt 1.01403 1.06536
vt -0.00685191 1.06536
vt 0.334917 0.196562
vt 0.825958 0.137512
vt 0.164579 0.137512
vt 0.665607 0.196562
vt 0.505255 0.255611
vt 0.495269 0.0983797
o merged_1_0_node
g polygon_0
usemtl mat_body_mat_id
f 56/70/55 57/71/56 58/72/57
f 56/70/55 59/71/58 57/71/56
f 56/70/55 58/72/57 60/73/59
f 56/70/55 61/70/60 59/71/58
f 56/70/55 60/73/59 62/74/61
f 56/70/55 63/75/62 61/70/60
f 56/70/55 62/74/61 64/75/63
f 56/70/55 64/75/63 63/75/62
f 57/71/56 65/76/64 58/72/57
f 57/71/56 59/71/58 66/77/65
f 57/71/56 66/77/65 65/76/64
f 60/73/59 58/72/57 67/78/66
f 61/70/60 63/75/62 68/74/67
f 61/70/60 69/72/68 59/71/58
f 61/70/60 68/74/67 70/73/69
f 61/70/60 71/78/70 69/72/68
f 61/70/60 70/73/69 71/78/70
f 62/74/61 72/79/71 64/75/63
f 72/79/71 63/75/62 64/75/63
f 72/79/71 68/74/67 63/75/62
f 66/77/65 59/71/58 73/76/72
f 73/76/72 59/71/58 69/72/68
f 74/80/73 75/81/74 76/82/75
f 74/80/73 77/83/76 75/81/74
f 74/80/73 76/82/75 78/84/77
f 74/80/73 79/85/78 77/83/76
f 74/80/73 78/84/77 80/86/79
f 74/80/73 80/86/79 79/85/78
f 81/80/80 82/82/81 83/81/82
f 81/80/80 84/84/83 82/82/81
f 81/80/80 83/81/82 85/83/84
f 81/80/80 86/86/85 84/84/83
f 81/80/80 85/83/84 87/85/86
f 81/80/80 87/85/86 86/86/85
f 88/87/87 89/88/88 90/89/89
f 88/87/87 91/90/90 89/88/88
f 88/87/87 90/89/89 92/91/91
f 88/87/87 70/92/69 91/90/90
f 88/87/87 71/93/70 70/92/69
f 89/88/88 60/94/59 90/89/89
f 89/88/88 91/90/90 93/95/92
f 60/94/59 67/96/66 90/89/89
f 91/90/90 94/97/93 93/95/92
f 94/97/93 72/98/71 93/95/92
f 94/97/93 68/99/67 72/98/71
f 93/95/92 72/98/71 62/100/61
f 65/101/64 69/102/68 58/103/57
f 65/101/64 73/104/72 69/102/68
f 65/101/64 66/105/65 73/104/72
f 58/103/57 69/102/68 92/106/91
v -0.0872243 0.03996819 -0.205374
vt 1 -0.25
vn -0.1956991 -0.6981784 -0.6886573
vt 1 3.25
v 0.0872243 0.03996819 -0.205374
vn 0.1736699 -0.6792068 -0.7131038
v -0.254903 0.0368748 0.121248
vn -0.813968 -0.239833 0.52909
v 0.254903 0.0368748 0.121248
vn 0.813968 -0.239833 0.52909
o merged_2_0_node
g polygon_0
usemtl mat_tume_mat_id
f 95/107/94 58/108/57 92/108/91
f 90/108/89 95/107/94 92/108/91
f 96/107/95 88/108/87 92/108/91
f 69/108/68 71/108/70 96/107/95
f 69/108/68 96/107/95 92/108/91
f 71/108/70 88/108/87 96/107/95
f 90/108/89 67/108/66 95/107/94
f 67/108/66 58/108/57 95/107/94
f 62/108/61 97/107/96 93/108/92
f 94/108/93 98/107/97 68/108/67
f 60/108/59 89/108/88 97/107/96
f 97/107/96 89/108/88 93/108/92
f 60/108/59 97/107/96 62/108/61
f 91/108/90 70/108/69 98/107/97
f 98/107/97 70/108/69 68/108/67
f 91/108/90 98/107/97 94/108/93
v -0.072671 0.423876 -0.6264679
vt 0.333333 0.333333
vn -0.4963007 0.02811028 0.8676955
v -0.0705364 0.453163 -0.690998
vt 0.333333 0.666667
vn -0.5908889 0.6994339 0.4020479
v -0.072671 0.3106371 -0.7555439
vt 0 0.333333
vn -0.4261898 -0.8865376 -0.1800369
v -0.0705364 0.3746411 -0.7805009
vt 0 0.666667
vn -0.5882159 -0.006508248 -0.8086778
v 0.0899273 0.3672571 -0.691007
vt 0.666667 0.333333
vn 0.9097186 -0.3724499 0.1835569
v 0.0505499 0.413902 -0.73575
vt 0.666667 0.666667
vn 0.8780966 0.4269208 -0.2160669
vt 1 0.333333
vt 1 0.666667
v -0.00686523 0.318656 -0.665422
vt 0.166667 0
vn 0.0105238 -0.8339339 0.551764
vt 0.5 0
vt 0.833333 0
v -0.00716847 0.5722851 -0.7684119
vt 0.166667 1
vn -0.408269 0.766244 -0.496172
vt 0.5 1
vt 0.833333 1
o merged_3_0_node
g polygon_0
usemtl mat_fire_mat_id
f 99/109/98 100/110/99 101/111/100
f 101/111/100 100/110/99 102/112/101
f 103/113/102 104/114/103 99/109/98
f 99/109/98 104/114/103 100/110/99
f 103/113/102 101/115/100 104/114/103
f 104/114/103 101/115/100 102/116/101
f 99/109/98 101/111/100 105/117/104
f 103/113/102 99/109/98 105/118/104
f 101/115/100 103/113/102 105/119/104
f 102/112/101 100/110/99 106/120/105
f 100/110/99 104/114/103 106/121/105
f 104/114/103 102/116/101 106/122/105
vt 0 1
vt 1 0.28125
vt 1 1
vt 0.71875 0
vt 1 0
vt 0 0
o merged_4_0_node
g polygon_0
usemtl mat_hane_mat_id
f 79/123/78 75/124/74 77/125/76
f 79/123/78 78/126/77 76/127/75
f 79/123/78 76/127/75 75/124/74
f 80/128/79 78/126/77 79/123/78
f 87/123/86 85/125/84 83/124/82
f 87/123/86 82/127/81 84/126/83
f 87/123/86 83/124/82 82/127/81
f 86/128/85 87/123/86 84/126/83
vt 1.04935 0.973926
vt 1.04935 0.801961
vt -0.0240457 0.973926
vt -0.0661103 0.776704
vt -0.286506 0.826597
o merged_5_0_node
g polygon_0
usemtl TEX_ANIM_EYE_mat_id
f 28/129/28 22/130/22 34/131/34
f 22/130/22 31/132/31 34/131/34
f 33/131/33 37/133/37 21/132/21
f 21/132/21 20/130/20 33/131/33
f 27/129/27 33/131/33 20/130/20
f 31/132/31 37/133/37 34/131/34
